<svg xmlns="http://www.w3.org/2000/svg" width="297" height="345" viewBox="0 0 297 345">
  <style>
    text { font-family: -apple-system, BlinkMacSystemFont, 'Segoe UI', Helvetica, Arial, sans-serif; }
  </style>
  <rect width="297" height="345" rx="4.5" fill="#0d1117"/>
  <text x="25" y="35" fill="#58a6ff" font-size="16" font-weight="600">Matthew Wilding's Contributions</text>
  <g transform="translate(25, 50)">
                <g fill="#8b949e"><path d="M2 2.5A2.5 2.5 0 014.5 0h8.75a.75.75 0 01.75.75v12.5a.75.75 0 01-.75.75h-2.5a.75.75 0 110-1.5h1.75v-2h-8a1 1 0 00-.714 1.7.75.75 0 01-1.072 1.05A2.495 2.495 0 012 11.5v-9zm10.5-1v9h-8a2.5 2.5 0 00-.732.107V2.5a1 1 0 011-1h7.732z" transform="scale(0.875)"/></g>
                <text x="22" y="12" fill="#c9d1d9" font-size="12">
                    <tspan fill="#8b949e">rust-lang</tspan>/<tspan font-weight="600">rust-analyzer</tspan>
                </text>
                <g transform="translate(212, 0)" fill="#8b949e">
                    <path d="M8 .25a.75.75 0 01.673.418l1.882 3.815 4.21.612a.75.75 0 01.416 1.279l-3.046 2.97.719 4.192a.75.75 0 01-1.088.791L8 12.347l-3.766 1.98a.75.75 0 01-1.088-.79l.72-4.194L.818 6.374a.75.75 0 01.416-1.28l4.21-.611L7.327.668A.75.75 0 018 .25z" transform="scale(0.875)"/>
                    <text x="18" y="12" fill="#c9d1d9" font-size="11">15.9k</text>
                </g>
            </g><g transform="translate(25, 78)">
                <g fill="#8b949e"><path d="M2 2.5A2.5 2.5 0 014.5 0h8.75a.75.75 0 01.75.75v12.5a.75.75 0 01-.75.75h-2.5a.75.75 0 110-1.5h1.75v-2h-8a1 1 0 00-.714 1.7.75.75 0 01-1.072 1.05A2.495 2.495 0 012 11.5v-9zm10.5-1v9h-8a2.5 2.5 0 00-.732.107V2.5a1 1 0 011-1h7.732z" transform="scale(0.875)"/></g>
                <text x="22" y="12" fill="#c9d1d9" font-size="12">
                    <tspan fill="#8b949e">neovim</tspan>/<tspan font-weight="600">nvim-lspconfig</tspan>
                </text>
                <g transform="translate(212, 0)" fill="#8b949e">
                    <path d="M8 .25a.75.75 0 01.673.418l1.882 3.815 4.21.612a.75.75 0 01.416 1.279l-3.046 2.97.719 4.192a.75.75 0 01-1.088.791L8 12.347l-3.766 1.98a.75.75 0 01-1.088-.79l.72-4.194L.818 6.374a.75.75 0 01.416-1.28l4.21-.611L7.327.668A.75.75 0 018 .25z" transform="scale(0.875)"/>
                    <text x="18" y="12" fill="#c9d1d9" font-size="11">13.2k</text>
                </g>
            </g><g transform="translate(25, 106)">
                <g fill="#8b949e"><path d="M2 2.5A2.5 2.5 0 014.5 0h8.75a.75.75 0 01.75.75v12.5a.75.75 0 01-.75.75h-2.5a.75.75 0 110-1.5h1.75v-2h-8a1 1 0 00-.714 1.7.75.75 0 01-1.072 1.05A2.495 2.495 0 012 11.5v-9zm10.5-1v9h-8a2.5 2.5 0 00-.732.107V2.5a1 1 0 011-1h7.732z" transform="scale(0.875)"/></g>
                <text x="22" y="12" fill="#c9d1d9" font-size="12">
                    <tspan fill="#8b949e">stevearc</tspan>/<tspan font-weight="600">oil.nvim</tspan>
                </text>
                <g transform="translate(212, 0)" fill="#8b949e">
                    <path d="M8 .25a.75.75 0 01.673.418l1.882 3.815 4.21.612a.75.75 0 01.416 1.279l-3.046 2.97.719 4.192a.75.75 0 01-1.088.791L8 12.347l-3.766 1.98a.75.75 0 01-1.088-.79l.72-4.194L.818 6.374a.75.75 0 01.416-1.28l4.21-.611L7.327.668A.75.75 0 018 .25z" transform="scale(0.875)"/>
                    <text x="18" y="12" fill="#c9d1d9" font-size="11">6.1k</text>
                </g>
            </g><g transform="translate(25, 134)">
                <g fill="#8b949e"><path d="M2 2.5A2.5 2.5 0 014.5 0h8.75a.75.75 0 01.75.75v12.5a.75.75 0 01-.75.75h-2.5a.75.75 0 110-1.5h1.75v-2h-8a1 1 0 00-.714 1.7.75.75 0 01-1.072 1.05A2.495 2.495 0 012 11.5v-9zm10.5-1v9h-8a2.5 2.5 0 00-.732.107V2.5a1 1 0 011-1h7.732z" transform="scale(0.875)"/></g>
                <text x="22" y="12" fill="#c9d1d9" font-size="12">
                    <tspan fill="#8b949e">dotnet</tspan>/<tspan font-weight="600">aspire</tspan>
                </text>
                <g transform="translate(212, 0)" fill="#8b949e">
                    <path d="M8 .25a.75.75 0 01.673.418l1.882 3.815 4.21.612a.75.75 0 01.416 1.279l-3.046 2.97.719 4.192a.75.75 0 01-1.088.791L8 12.347l-3.766 1.98a.75.75 0 01-1.088-.79l.72-4.194L.818 6.374a.75.75 0 01.416-1.28l4.21-.611L7.327.668A.75.75 0 018 .25z" transform="scale(0.875)"/>
                    <text x="18" y="12" fill="#c9d1d9" font-size="11">5.3k</text>
                </g>
            </g><g transform="translate(25, 162)">
                <g fill="#8b949e"><path d="M2 2.5A2.5 2.5 0 014.5 0h8.75a.75.75 0 01.75.75v12.5a.75.75 0 01-.75.75h-2.5a.75.75 0 110-1.5h1.75v-2h-8a1 1 0 00-.714 1.7.75.75 0 01-1.072 1.05A2.495 2.495 0 012 11.5v-9zm10.5-1v9h-8a2.5 2.5 0 00-.732.107V2.5a1 1 0 011-1h7.732z" transform="scale(0.875)"/></g>
                <text x="22" y="12" fill="#c9d1d9" font-size="12">
                    <tspan fill="#8b949e">nvimdev</tspan>/<tspan font-weight="600">dashboard-nvim</tspan>
                </text>
                <g transform="translate(212, 0)" fill="#8b949e">
                    <path d="M8 .25a.75.75 0 01.673.418l1.882 3.815 4.21.612a.75.75 0 01.416 1.279l-3.046 2.97.719 4.192a.75.75 0 01-1.088.791L8 12.347l-3.766 1.98a.75.75 0 01-1.088-.79l.72-4.194L.818 6.374a.75.75 0 01.416-1.28l4.21-.611L7.327.668A.75.75 0 018 .25z" transform="scale(0.875)"/>
                    <text x="18" y="12" fill="#c9d1d9" font-size="11">2.8k</text>
                </g>
            </g><g transform="translate(25, 190)">
                <g fill="#8b949e"><path d="M2 2.5A2.5 2.5 0 014.5 0h8.75a.75.75 0 01.75.75v12.5a.75.75 0 01-.75.75h-2.5a.75.75 0 110-1.5h1.75v-2h-8a1 1 0 00-.714 1.7.75.75 0 01-1.072 1.05A2.495 2.495 0 012 11.5v-9zm10.5-1v9h-8a2.5 2.5 0 00-.732.107V2.5a1 1 0 011-1h7.732z" transform="scale(0.875)"/></g>
                <text x="22" y="12" fill="#c9d1d9" font-size="12">
                    <tspan fill="#8b949e">ImGuiNET</tspan>/<tspan font-weight="600">ImGui.NET</tspan>
                </text>
                <g transform="translate(212, 0)" fill="#8b949e">
                    <path d="M8 .25a.75.75 0 01.673.418l1.882 3.815 4.21.612a.75.75 0 01.416 1.279l-3.046 2.97.719 4.192a.75.75 0 01-1.088.791L8 12.347l-3.766 1.98a.75.75 0 01-1.088-.79l.72-4.194L.818 6.374a.75.75 0 01.416-1.28l4.21-.611L7.327.668A.75.75 0 018 .25z" transform="scale(0.875)"/>
                    <text x="18" y="12" fill="#c9d1d9" font-size="11">2.2k</text>
                </g>
            </g><g transform="translate(25, 218)">
                <g fill="#8b949e"><path d="M2 2.5A2.5 2.5 0 014.5 0h8.75a.75.75 0 01.75.75v12.5a.75.75 0 01-.75.75h-2.5a.75.75 0 110-1.5h1.75v-2h-8a1 1 0 00-.714 1.7.75.75 0 01-1.072 1.05A2.495 2.495 0 012 11.5v-9zm10.5-1v9h-8a2.5 2.5 0 00-.732.107V2.5a1 1 0 011-1h7.732z" transform="scale(0.875)"/></g>
                <text x="22" y="12" fill="#c9d1d9" font-size="12">
                    <tspan fill="#8b949e">aws</tspan>/<tspan font-weight="600">aws-toolkit-jetbrains</tspan>
                </text>
                <g transform="translate(212, 0)" fill="#8b949e">
                    <path d="M8 .25a.75.75 0 01.673.418l1.882 3.815 4.21.612a.75.75 0 01.416 1.279l-3.046 2.97.719 4.192a.75.75 0 01-1.088.791L8 12.347l-3.766 1.98a.75.75 0 01-1.088-.79l.72-4.194L.818 6.374a.75.75 0 01.416-1.28l4.21-.611L7.327.668A.75.75 0 018 .25z" transform="scale(0.875)"/>
                    <text x="18" y="12" fill="#c9d1d9" font-size="11">835</text>
                </g>
            </g><g transform="translate(25, 246)">
                <g fill="#8b949e"><path d="M2 2.5A2.5 2.5 0 014.5 0h8.75a.75.75 0 01.75.75v12.5a.75.75 0 01-.75.75h-2.5a.75.75 0 110-1.5h1.75v-2h-8a1 1 0 00-.714 1.7.75.75 0 01-1.072 1.05A2.495 2.495 0 012 11.5v-9zm10.5-1v9h-8a2.5 2.5 0 00-.732.107V2.5a1 1 0 011-1h7.732z" transform="scale(0.875)"/></g>
                <text x="22" y="12" fill="#c9d1d9" font-size="12">
                    <tspan fill="#8b949e">A7Lavinraj</tspan>/<tspan font-weight="600">fyler.nvim</tspan>
                </text>
                <g transform="translate(212, 0)" fill="#8b949e">
                    <path d="M8 .25a.75.75 0 01.673.418l1.882 3.815 4.21.612a.75.75 0 01.416 1.279l-3.046 2.97.719 4.192a.75.75 0 01-1.088.791L8 12.347l-3.766 1.98a.75.75 0 01-1.088-.79l.72-4.194L.818 6.374a.75.75 0 01.416-1.28l4.21-.611L7.327.668A.75.75 0 018 .25z" transform="scale(0.875)"/>
                    <text x="18" y="12" fill="#c9d1d9" font-size="11">645</text>
                </g>
            </g><g transform="translate(25, 274)">
                <g fill="#8b949e"><path d="M2 2.5A2.5 2.5 0 014.5 0h8.75a.75.75 0 01.75.75v12.5a.75.75 0 01-.75.75h-2.5a.75.75 0 110-1.5h1.75v-2h-8a1 1 0 00-.714 1.7.75.75 0 01-1.072 1.05A2.495 2.495 0 012 11.5v-9zm10.5-1v9h-8a2.5 2.5 0 00-.732.107V2.5a1 1 0 011-1h7.732z" transform="scale(0.875)"/></g>
                <text x="22" y="12" fill="#c9d1d9" font-size="12">
                    <tspan fill="#8b949e">Ramilito</tspan>/<tspan font-weight="600">kubectl.nvim</tspan>
                </text>
                <g transform="translate(212, 0)" fill="#8b949e">
                    <path d="M8 .25a.75.75 0 01.673.418l1.882 3.815 4.21.612a.75.75 0 01.416 1.279l-3.046 2.97.719 4.192a.75.75 0 01-1.088.791L8 12.347l-3.766 1.98a.75.75 0 01-1.088-.79l.72-4.194L.818 6.374a.75.75 0 01.416-1.28l4.21-.611L7.327.668A.75.75 0 018 .25z" transform="scale(0.875)"/>
                    <text x="18" y="12" fill="#c9d1d9" font-size="11">493</text>
                </g>
            </g><g transform="translate(25, 302)">
                <g fill="#8b949e"><path d="M2 2.5A2.5 2.5 0 014.5 0h8.75a.75.75 0 01.75.75v12.5a.75.75 0 01-.75.75h-2.5a.75.75 0 110-1.5h1.75v-2h-8a1 1 0 00-.714 1.7.75.75 0 01-1.072 1.05A2.495 2.495 0 012 11.5v-9zm10.5-1v9h-8a2.5 2.5 0 00-.732.107V2.5a1 1 0 011-1h7.732z" transform="scale(0.875)"/></g>
                <text x="22" y="12" fill="#c9d1d9" font-size="12">
                    <tspan fill="#8b949e">ninjanye</tspan>/<tspan font-weight="600">SearchExtensions</tspan>
                </text>
                <g transform="translate(212, 0)" fill="#8b949e">
                    <path d="M8 .25a.75.75 0 01.673.418l1.882 3.815 4.21.612a.75.75 0 01.416 1.279l-3.046 2.97.719 4.192a.75.75 0 01-1.088.791L8 12.347l-3.766 1.98a.75.75 0 01-1.088-.79l.72-4.194L.818 6.374a.75.75 0 01.416-1.28l4.21-.611L7.327.668A.75.75 0 018 .25z" transform="scale(0.875)"/>
                    <text x="18" y="12" fill="#c9d1d9" font-size="11">342</text>
                </g>
            </g>
</svg>