<svg xmlns="http://www.w3.org/2000/svg" width="303" height="385" viewBox="0 0 303 385">
  <style>
    text { font-family: -apple-system, BlinkMacSystemFont, 'Segoe UI', Helvetica, Arial, sans-serif; }
  </style>
  <rect width="303" height="385" rx="4.5" fill="#ffffff"/>
  <text x="25" y="35" fill="#0366d6" font-size="16" font-weight="600">mbwilding's Contributions</text>
  <g transform="translate(25, 50)">
                <clipPath id="avatar-clip-0">
                    <circle cx="10" cy="10" r="10"/>
                </clipPath>
                <image href="https://avatars.githubusercontent.com/u/5430905?s=32&amp;v=4" x="0" y="0" width="20" height="20" clip-path="url(#avatar-clip-0)"/>
                <text x="28" y="14" fill="#333333" font-size="12">
                    <tspan fill="#586069">rust-lang</tspan>/<tspan font-weight="600">rust-analyzer</tspan>
                </text>
                <g transform="translate(218, 2)" fill="#586069">
                    <path d="M8 .25a.75.75 0 01.673.418l1.882 3.815 4.21.612a.75.75 0 01.416 1.279l-3.046 2.97.719 4.192a.75.75 0 01-1.088.791L8 12.347l-3.766 1.98a.75.75 0 01-1.088-.79l.72-4.194L.818 6.374a.75.75 0 01.416-1.28l4.21-.611L7.327.668A.75.75 0 018 .25z" transform="scale(0.875)"/>
                    <text x="18" y="12" fill="#333333" font-size="11">15.9k</text>
                </g>
            </g><g transform="translate(25, 82)">
                <clipPath id="avatar-clip-1">
                    <circle cx="10" cy="10" r="10"/>
                </clipPath>
                <image href="https://avatars.githubusercontent.com/u/6471485?s=32&amp;v=4" x="0" y="0" width="20" height="20" clip-path="url(#avatar-clip-1)"/>
                <text x="28" y="14" fill="#333333" font-size="12">
                    <tspan fill="#586069">neovim</tspan>/<tspan font-weight="600">nvim-lspconfig</tspan>
                </text>
                <g transform="translate(218, 2)" fill="#586069">
                    <path d="M8 .25a.75.75 0 01.673.418l1.882 3.815 4.21.612a.75.75 0 01.416 1.279l-3.046 2.97.719 4.192a.75.75 0 01-1.088.791L8 12.347l-3.766 1.98a.75.75 0 01-1.088-.79l.72-4.194L.818 6.374a.75.75 0 01.416-1.28l4.21-.611L7.327.668A.75.75 0 018 .25z" transform="scale(0.875)"/>
                    <text x="18" y="12" fill="#333333" font-size="11">13.2k</text>
                </g>
            </g><g transform="translate(25, 114)">
                <clipPath id="avatar-clip-2">
                    <circle cx="10" cy="10" r="10"/>
                </clipPath>
                <image href="https://avatars.githubusercontent.com/u/506791?s=32&amp;u=fe8dfb41ee191a5da1ebb441f4b0c5f0cff22e4a&amp;v=4" x="0" y="0" width="20" height="20" clip-path="url(#avatar-clip-2)"/>
                <text x="28" y="14" fill="#333333" font-size="12">
                    <tspan fill="#586069">stevearc</tspan>/<tspan font-weight="600">oil.nvim</tspan>
                </text>
                <g transform="translate(218, 2)" fill="#586069">
                    <path d="M8 .25a.75.75 0 01.673.418l1.882 3.815 4.21.612a.75.75 0 01.416 1.279l-3.046 2.97.719 4.192a.75.75 0 01-1.088.791L8 12.347l-3.766 1.98a.75.75 0 01-1.088-.79l.72-4.194L.818 6.374a.75.75 0 01.416-1.28l4.21-.611L7.327.668A.75.75 0 018 .25z" transform="scale(0.875)"/>
                    <text x="18" y="12" fill="#333333" font-size="11">6.1k</text>
                </g>
            </g><g transform="translate(25, 146)">
                <clipPath id="avatar-clip-3">
                    <circle cx="10" cy="10" r="10"/>
                </clipPath>
                <image href="https://avatars.githubusercontent.com/u/9141961?s=32&amp;v=4" x="0" y="0" width="20" height="20" clip-path="url(#avatar-clip-3)"/>
                <text x="28" y="14" fill="#333333" font-size="12">
                    <tspan fill="#586069">dotnet</tspan>/<tspan font-weight="600">aspire</tspan>
                </text>
                <g transform="translate(218, 2)" fill="#586069">
                    <path d="M8 .25a.75.75 0 01.673.418l1.882 3.815 4.21.612a.75.75 0 01.416 1.279l-3.046 2.97.719 4.192a.75.75 0 01-1.088.791L8 12.347l-3.766 1.98a.75.75 0 01-1.088-.79l.72-4.194L.818 6.374a.75.75 0 01.416-1.28l4.21-.611L7.327.668A.75.75 0 018 .25z" transform="scale(0.875)"/>
                    <text x="18" y="12" fill="#333333" font-size="11">5.3k</text>
                </g>
            </g><g transform="translate(25, 178)">
                <clipPath id="avatar-clip-4">
                    <circle cx="10" cy="10" r="10"/>
                </clipPath>
                <image href="https://avatars.githubusercontent.com/u/130372558?s=32&amp;v=4" x="0" y="0" width="20" height="20" clip-path="url(#avatar-clip-4)"/>
                <text x="28" y="14" fill="#333333" font-size="12">
                    <tspan fill="#586069">nvimdev</tspan>/<tspan font-weight="600">dashboard-nvim</tspan>
                </text>
                <g transform="translate(218, 2)" fill="#586069">
                    <path d="M8 .25a.75.75 0 01.673.418l1.882 3.815 4.21.612a.75.75 0 01.416 1.279l-3.046 2.97.719 4.192a.75.75 0 01-1.088.791L8 12.347l-3.766 1.98a.75.75 0 01-1.088-.79l.72-4.194L.818 6.374a.75.75 0 01.416-1.28l4.21-.611L7.327.668A.75.75 0 018 .25z" transform="scale(0.875)"/>
                    <text x="18" y="12" fill="#333333" font-size="11">2.8k</text>
                </g>
            </g><g transform="translate(25, 210)">
                <clipPath id="avatar-clip-5">
                    <circle cx="10" cy="10" r="10"/>
                </clipPath>
                <image href="https://avatars.githubusercontent.com/u/132169617?s=32&amp;v=4" x="0" y="0" width="20" height="20" clip-path="url(#avatar-clip-5)"/>
                <text x="28" y="14" fill="#333333" font-size="12">
                    <tspan fill="#586069">ImGuiNET</tspan>/<tspan font-weight="600">ImGui.NET</tspan>
                </text>
                <g transform="translate(218, 2)" fill="#586069">
                    <path d="M8 .25a.75.75 0 01.673.418l1.882 3.815 4.21.612a.75.75 0 01.416 1.279l-3.046 2.97.719 4.192a.75.75 0 01-1.088.791L8 12.347l-3.766 1.98a.75.75 0 01-1.088-.79l.72-4.194L.818 6.374a.75.75 0 01.416-1.28l4.21-.611L7.327.668A.75.75 0 018 .25z" transform="scale(0.875)"/>
                    <text x="18" y="12" fill="#333333" font-size="11">2.2k</text>
                </g>
            </g><g transform="translate(25, 242)">
                <clipPath id="avatar-clip-6">
                    <circle cx="10" cy="10" r="10"/>
                </clipPath>
                <image href="https://avatars.githubusercontent.com/u/2232217?s=32&amp;v=4" x="0" y="0" width="20" height="20" clip-path="url(#avatar-clip-6)"/>
                <text x="28" y="14" fill="#333333" font-size="12">
                    <tspan fill="#586069">aws</tspan>/<tspan font-weight="600">aws-toolkit-jetbrains</tspan>
                </text>
                <g transform="translate(218, 2)" fill="#586069">
                    <path d="M8 .25a.75.75 0 01.673.418l1.882 3.815 4.21.612a.75.75 0 01.416 1.279l-3.046 2.97.719 4.192a.75.75 0 01-1.088.791L8 12.347l-3.766 1.98a.75.75 0 01-1.088-.79l.72-4.194L.818 6.374a.75.75 0 01.416-1.28l4.21-.611L7.327.668A.75.75 0 018 .25z" transform="scale(0.875)"/>
                    <text x="18" y="12" fill="#333333" font-size="11">835</text>
                </g>
            </g><g transform="translate(25, 274)">
                <clipPath id="avatar-clip-7">
                    <circle cx="10" cy="10" r="10"/>
                </clipPath>
                <image href="https://avatars.githubusercontent.com/u/107323410?s=32&amp;u=6e367d63588f72e11558d800753896fee89bb11c&amp;v=4" x="0" y="0" width="20" height="20" clip-path="url(#avatar-clip-7)"/>
                <text x="28" y="14" fill="#333333" font-size="12">
                    <tspan fill="#586069">A7Lavinraj</tspan>/<tspan font-weight="600">fyler.nvim</tspan>
                </text>
                <g transform="translate(218, 2)" fill="#586069">
                    <path d="M8 .25a.75.75 0 01.673.418l1.882 3.815 4.21.612a.75.75 0 01.416 1.279l-3.046 2.97.719 4.192a.75.75 0 01-1.088.791L8 12.347l-3.766 1.98a.75.75 0 01-1.088-.79l.72-4.194L.818 6.374a.75.75 0 01.416-1.28l4.21-.611L7.327.668A.75.75 0 018 .25z" transform="scale(0.875)"/>
                    <text x="18" y="12" fill="#333333" font-size="11">645</text>
                </g>
            </g><g transform="translate(25, 306)">
                <clipPath id="avatar-clip-8">
                    <circle cx="10" cy="10" r="10"/>
                </clipPath>
                <image href="https://avatars.githubusercontent.com/u/8473233?s=32&amp;u=e7645fb33d6d7bea1e68c7dc28e1741294ab06d5&amp;v=4" x="0" y="0" width="20" height="20" clip-path="url(#avatar-clip-8)"/>
                <text x="28" y="14" fill="#333333" font-size="12">
                    <tspan fill="#586069">Ramilito</tspan>/<tspan font-weight="600">kubectl.nvim</tspan>
                </text>
                <g transform="translate(218, 2)" fill="#586069">
                    <path d="M8 .25a.75.75 0 01.673.418l1.882 3.815 4.21.612a.75.75 0 01.416 1.279l-3.046 2.97.719 4.192a.75.75 0 01-1.088.791L8 12.347l-3.766 1.98a.75.75 0 01-1.088-.79l.72-4.194L.818 6.374a.75.75 0 01.416-1.28l4.21-.611L7.327.668A.75.75 0 018 .25z" transform="scale(0.875)"/>
                    <text x="18" y="12" fill="#333333" font-size="11">493</text>
                </g>
            </g><g transform="translate(25, 338)">
                <clipPath id="avatar-clip-9">
                    <circle cx="10" cy="10" r="10"/>
                </clipPath>
                <image href="https://avatars.githubusercontent.com/u/1645574?s=32&amp;v=4" x="0" y="0" width="20" height="20" clip-path="url(#avatar-clip-9)"/>
                <text x="28" y="14" fill="#333333" font-size="12">
                    <tspan fill="#586069">ninjanye</tspan>/<tspan font-weight="600">SearchExtensions</tspan>
                </text>
                <g transform="translate(218, 2)" fill="#586069">
                    <path d="M8 .25a.75.75 0 01.673.418l1.882 3.815 4.21.612a.75.75 0 01.416 1.279l-3.046 2.97.719 4.192a.75.75 0 01-1.088.791L8 12.347l-3.766 1.98a.75.75 0 01-1.088-.79l.72-4.194L.818 6.374a.75.75 0 01.416-1.28l4.21-.611L7.327.668A.75.75 0 018 .25z" transform="scale(0.875)"/>
                    <text x="18" y="12" fill="#333333" font-size="11">342</text>
                </g>
            </g>
</svg>