<svg xmlns="http://www.w3.org/2000/svg" width="290" height="140" viewBox="0 0 290 140"><style>text{font-family:-apple-system,BlinkMacSystemFont,Segoe UI,Helvetica,Arial,sans-serif}</style><g transform="translate(0 32)"><rect width="12" height="12" fill="#dea584" rx="2"/><text x="18" y="10" fill="#f0f6fc" font-size="11px">Rust <tspan fill="#7d8590">37.9%</tspan></text></g><g transform="translate(0 48)"><rect width="12" height="12" fill="#3178c6" rx="2"/><text x="18" y="10" fill="#f0f6fc" font-size="11px">TypeScript <tspan fill="#7d8590">20.3%</tspan></text></g><g transform="translate(0 64)"><rect width="12" height="12" fill="#178600" rx="2"/><text x="18" y="10" fill="#f0f6fc" font-size="11px">C# <tspan fill="#7d8590">14.9%</tspan></text></g><g transform="translate(0 80)"><rect width="12" height="12" fill="navy" rx="2"/><text x="18" y="10" fill="#f0f6fc" font-size="11px">Lua <tspan fill="#7d8590">14.8%</tspan></text></g><g transform="translate(0 96)"><rect width="12" height="12" fill="#ec915c" rx="2"/><text x="18" y="10" fill="#f0f6fc" font-size="11px">Zig <tspan fill="#7d8590">12.0%</tspan></text></g><path fill="#dea584" d="M220 0a70 70 0 0 1 48.13 120.83l-19.25-20.33A42 42 0 0 0 220 28Z"/><path fill="#3178c6" d="M268.13 120.83a70 70 0 0 1-82.75 10.01l13.85-24.34a42 42 0 0 0 49.65-6Z"/><path fill="#178600" d="M185.38 130.84a70 70 0 0 1-34.89-52.57l27.8-3.31a42 42 0 0 0 20.94 31.54Z"/><path fill="navy" d="M150.49 78.27a70 70 0 0 1 21.43-59.15l19.23 20.35a42 42 0 0 0-12.86 35.49Z"/><path fill="#ec915c" d="M171.92 19.12A70 70 0 0 1 220 0v28a42 42 0 0 0-28.85 11.47Z"/></svg>