<svg xmlns="http://www.w3.org/2000/svg" width="206" height="76" viewBox="0 0 206 76"><style>text{font-family:-apple-system,BlinkMacSystemFont,Segoe UI,Helvetica,Arial,sans-serif}</style><g><rect width="12" height="12" fill="#dea584" rx="2"/><text x="18" y="10" fill="#1f2328" font-size="11px" font-weight="700">Rust <tspan fill="#59636e">39.2%</tspan></text></g><g transform="translate(0 16)"><rect width="12" height="12" fill="#3178c6" rx="2"/><text x="18" y="10" fill="#1f2328" font-size="11px" font-weight="700">TypeScript <tspan fill="#59636e">19.7%</tspan></text></g><g transform="translate(0 32)"><rect width="12" height="12" fill="navy" rx="2"/><text x="18" y="10" fill="#1f2328" font-size="11px" font-weight="700">Lua <tspan fill="#59636e">14.9%</tspan></text></g><g transform="translate(0 48)"><rect width="12" height="12" fill="#178600" rx="2"/><text x="18" y="10" fill="#1f2328" font-size="11px" font-weight="700">C# <tspan fill="#59636e">14.5%</tspan></text></g><g transform="translate(0 64)"><rect width="12" height="12" fill="#ec915c" rx="2"/><text x="18" y="10" fill="#1f2328" font-size="11px" font-weight="700">Zig <tspan fill="#59636e">11.7%</tspan></text></g><path fill="#dea584" d="M168 0a38 38 0 0 1 23.9 67.54l-9.56-11.82A22.8 22.8 0 0 0 168 15.2Z"/><path fill="#3178c6" d="M191.9 67.54a38 38 0 0 1-44.05 2.68l8.06-12.89a22.8 22.8 0 0 0 26.43-1.61Z"/><path fill="navy" d="M147.85 70.22a38 38 0 0 1-17.75-29.45l15.16-1.11a22.8 22.8 0 0 0 10.65 17.67Z"/><path fill="#178600" d="M130.1 40.77a38 38 0 0 1 12.4-30.95l10.2 11.27a22.8 22.8 0 0 0-7.44 18.57Z"/><path fill="#ec915c" d="M142.5 9.82A38 38 0 0 1 168 0v15.2a22.8 22.8 0 0 0-15.3 5.89Z"/></svg>