<svg xmlns="http://www.w3.org/2000/svg" width="206" height="76" viewBox="0 0 206 76"><style>text{font-family:-apple-system,BlinkMacSystemFont,Segoe UI,Helvetica,Arial,sans-serif}</style><g><rect width="12" height="12" fill="#dea584" rx="2"/><text x="18" y="10" fill="#1f2328" font-size="11px" font-weight="700">Rust <tspan fill="#59636e">39.4%</tspan></text></g><g transform="translate(0 16)"><rect width="12" height="12" fill="#3178c6" rx="2"/><text x="18" y="10" fill="#1f2328" font-size="11px" font-weight="700">TypeScript <tspan fill="#59636e">19.6%</tspan></text></g><g transform="translate(0 32)"><rect width="12" height="12" fill="navy" rx="2"/><text x="18" y="10" fill="#1f2328" font-size="11px" font-weight="700">Lua <tspan fill="#59636e">15.0%</tspan></text></g><g transform="translate(0 48)"><rect width="12" height="12" fill="#178600" rx="2"/><text x="18" y="10" fill="#1f2328" font-size="11px" font-weight="700">C# <tspan fill="#59636e">14.4%</tspan></text></g><g transform="translate(0 64)"><rect width="12" height="12" fill="#ec915c" rx="2"/><text x="18" y="10" fill="#1f2328" font-size="11px" font-weight="700">Zig <tspan fill="#59636e">11.6%</tspan></text></g><path fill="#dea584" d="M168 0a38 38 0 0 1 23.46 67.89l-9.38-11.95A22.8 22.8 0 0 0 168 15.2Z"/><path fill="#3178c6" d="M191.46 67.89a38 38 0 0 1-43.84 2.18l8.15-12.83a22.8 22.8 0 0 0 26.31-1.3Z"/><path fill="navy" d="M147.62 70.07a38 38 0 0 1-17.54-29.68l15.17-.95a22.8 22.8 0 0 0 10.52 17.8Z"/><path fill="#178600" d="M130.08 40.39a38 38 0 0 1 12.55-30.68l10.15 11.32a22.8 22.8 0 0 0-7.53 18.41Z"/><path fill="#ec915c" d="M142.63 9.71A38 38 0 0 1 168 0v15.2a22.8 22.8 0 0 0-15.22 5.83Z"/></svg>