<svg xmlns="http://www.w3.org/2000/svg" width="206" height="76" viewBox="0 0 206 76"><style>text{font-family:-apple-system,BlinkMacSystemFont,Segoe UI,Helvetica,Arial,sans-serif}</style><g><rect width="12" height="12" fill="#dea584" rx="2"/><text x="18" y="10" fill="#1f2328" font-size="11px" font-weight="700">Rust <tspan fill="#59636e">38.2%</tspan></text></g><g transform="translate(0 16)"><rect width="12" height="12" fill="#3178c6" rx="2"/><text x="18" y="10" fill="#1f2328" font-size="11px" font-weight="700">TypeScript <tspan fill="#59636e">20.2%</tspan></text></g><g transform="translate(0 32)"><rect width="12" height="12" fill="#178600" rx="2"/><text x="18" y="10" fill="#1f2328" font-size="11px" font-weight="700">C# <tspan fill="#59636e">14.8%</tspan></text></g><g transform="translate(0 48)"><rect width="12" height="12" fill="navy" rx="2"/><text x="18" y="10" fill="#1f2328" font-size="11px" font-weight="700">Lua <tspan fill="#59636e">14.8%</tspan></text></g><g transform="translate(0 64)"><rect width="12" height="12" fill="#ec915c" rx="2"/><text x="18" y="10" fill="#1f2328" font-size="11px" font-weight="700">Zig <tspan fill="#59636e">12.0%</tspan></text></g><path fill="#dea584" d="M168 0a38 38 0 0 1 25.7 65.99l-10.28-11.2A22.8 22.8 0 0 0 168 15.2Z"/><path fill="#3178c6" d="M193.7 65.99a38 38 0 0 1-44.83 4.84l7.65-13.13a22.8 22.8 0 0 0 26.9-2.91Z"/><path fill="#178600" d="M148.87 70.83a38 38 0 0 1-18.63-28.59l15.1-1.7a22.8 22.8 0 0 0 11.18 17.16Z"/><path fill="navy" d="M130.24 42.24a38 38 0 0 1 11.74-31.94l10.41 11.08a22.8 22.8 0 0 0-7.05 19.16Z"/><path fill="#ec915c" d="M141.98 10.3A38 38 0 0 1 168 0v15.2a22.8 22.8 0 0 0-15.61 6.18Z"/></svg>