<svg xmlns="http://www.w3.org/2000/svg" width="206" height="76" viewBox="0 0 206 76"><style>text{font-family:-apple-system,BlinkMacSystemFont,Segoe UI,Helvetica,Arial,sans-serif}</style><g><rect width="12" height="12" fill="#dea584" rx="2"/><text x="18" y="10" fill="#f0f6fc" font-size="11px" font-weight="700">Rust <tspan fill="#7d8590">36.1%</tspan></text></g><g transform="translate(0 16)"><rect width="12" height="12" fill="#3178c6" rx="2"/><text x="18" y="10" fill="#f0f6fc" font-size="11px" font-weight="700">TypeScript <tspan fill="#7d8590">28.3%</tspan></text></g><g transform="translate(0 32)"><rect width="12" height="12" fill="navy" rx="2"/><text x="18" y="10" fill="#f0f6fc" font-size="11px" font-weight="700">Lua <tspan fill="#7d8590">13.2%</tspan></text></g><g transform="translate(0 48)"><rect width="12" height="12" fill="#178600" rx="2"/><text x="18" y="10" fill="#f0f6fc" font-size="11px" font-weight="700">C# <tspan fill="#7d8590">12.2%</tspan></text></g><g transform="translate(0 64)"><rect width="12" height="12" fill="#ec915c" rx="2"/><text x="18" y="10" fill="#f0f6fc" font-size="11px" font-weight="700">Zig <tspan fill="#7d8590">10.2%</tspan></text></g><path fill="#dea584" d="M168 0a38 38 0 0 1 29.16 62.36l-11.66-9.74A22.8 22.8 0 0 0 168 15.2Z"/><path fill="#3178c6" d="M197.16 62.36a38 38 0 0 1-59.03-.87l11.95-9.39a22.8 22.8 0 0 0 35.42.52Z"/><path fill="navy" d="M138.13 61.49a38 38 0 0 1-7.62-29.71l15 2.49a22.8 22.8 0 0 0 4.57 17.83Z"/><path fill="#178600" d="M130.51 31.78a38 38 0 0 1 14.8-24.27l9.08 12.2a22.8 22.8 0 0 0-8.88 14.56Z"/><path fill="#ec915c" d="M145.31 7.51A38 38 0 0 1 168 0v15.2a22.8 22.8 0 0 0-13.61 4.51Z"/></svg>