<svg xmlns="http://www.w3.org/2000/svg" width="290" height="140" viewBox="0 0 290 140"><style>text{font-family:-apple-system,BlinkMacSystemFont,Segoe UI,Helvetica,Arial,sans-serif}</style><g transform="translate(0 8)"><rect width="12" height="12" fill="#dea584" rx="2"/><text x="18" y="10" fill="#f0f6fc" font-size="11px">Rust (36.7%)</text></g><g transform="translate(0 24)"><rect width="12" height="12" fill="#3178c6" rx="2"/><text x="18" y="10" fill="#f0f6fc" font-size="11px">TypeScript (19.6%)</text></g><g transform="translate(0 40)"><rect width="12" height="12" fill="#178600" rx="2"/><text x="18" y="10" fill="#f0f6fc" font-size="11px">C# (14.4%)</text></g><g transform="translate(0 56)"><rect width="12" height="12" fill="navy" rx="2"/><text x="18" y="10" fill="#f0f6fc" font-size="11px">Lua (14.3%)</text></g><g transform="translate(0 72)"><rect width="12" height="12" fill="#ec915c" rx="2"/><text x="18" y="10" fill="#f0f6fc" font-size="11px">Zig (11.7%)</text></g><g transform="translate(0 88)"><rect width="12" height="12" fill="#89e051" rx="2"/><text x="18" y="10" fill="#f0f6fc" font-size="11px">Shell (1.1%)</text></g><g transform="translate(0 104)"><rect width="12" height="12" fill="#e34c26" rx="2"/><text x="18" y="10" fill="#f0f6fc" font-size="11px">HTML (0.5%)</text></g><g transform="translate(0 120)"><rect width="12" height="12" fill="#f34b7d" rx="2"/><text x="18" y="10" fill="#f0f6fc" font-size="11px">C++ (0.4%)</text></g><path fill="#dea584" d="M220 0a70 70 0 0 1 51.97 116.89l-20.79-18.75A42 42 0 0 0 220 28Z"/><path fill="#3178c6" d="M271.97 116.89a70 70 0 0 1-79.02 17.67l10.82-25.82a42 42 0 0 0 47.41-10.6Z"/><path fill="#178600" d="M192.95 134.56a70 70 0 0 1-40.42-45.9l26.99-7.46a42 42 0 0 0 24.25 27.54Z"/><path fill="navy" d="M152.53 88.66a70 70 0 0 1 10.98-59.99L186.1 45.2a42 42 0 0 0-6.58 36Z"/><path fill="#ec915c" d="M163.51 28.67a70 70 0 0 1 42.1-27.18l5.76 27.41a42 42 0 0 0-25.27 16.3Z"/><path fill="#89e051" d="M205.61 1.49a70 70 0 0 1 4.8-.83l3.83 27.74a42 42 0 0 0-2.87.5Z"/><path fill="#e34c26" d="M210.41.66a70 70 0 0 1 2.16-.26l2.97 27.84a42 42 0 0 0-1.3.16Z"/><path fill="#f34b7d" d="M212.57.4a70 70 0 0 1 1.54-.15l2.36 27.9a42 42 0 0 0-.93.09Z"/></svg>