<svg xmlns="http://www.w3.org/2000/svg" width="206" height="76" viewBox="0 0 206 76"><style>text{font-family:-apple-system,BlinkMacSystemFont,Segoe UI,Helvetica,Arial,sans-serif}</style><g><rect width="12" height="12" fill="#dea584" rx="2"/><text x="18" y="10" fill="#1f2328" font-size="11px" font-weight="700">Rust <tspan fill="#59636e">32.8%</tspan></text></g><g transform="translate(0 16)"><rect width="12" height="12" fill="#3178c6" rx="2"/><text x="18" y="10" fill="#1f2328" font-size="11px" font-weight="700">TypeScript <tspan fill="#59636e">25.7%</tspan></text></g><g transform="translate(0 32)"><rect width="12" height="12" fill="navy" rx="2"/><text x="18" y="10" fill="#1f2328" font-size="11px" font-weight="700">Lua <tspan fill="#59636e">21.2%</tspan></text></g><g transform="translate(0 48)"><rect width="12" height="12" fill="#178600" rx="2"/><text x="18" y="10" fill="#1f2328" font-size="11px" font-weight="700">C# <tspan fill="#59636e">11.1%</tspan></text></g><g transform="translate(0 64)"><rect width="12" height="12" fill="#ec915c" rx="2"/><text x="18" y="10" fill="#1f2328" font-size="11px" font-weight="700">Zig <tspan fill="#59636e">9.2%</tspan></text></g><path fill="#dea584" d="M168 0a38 38 0 0 1 33.58 55.78l-13.43-7.11A22.8 22.8 0 0 0 168 15.2Z"/><path fill="#3178c6" d="M201.58 55.78a38 38 0 0 1-52.84 14.98l7.71-13.1a22.8 22.8 0 0 0 31.7-8.99Z"/><path fill="navy" d="M148.74 70.76a38 38 0 0 1-17.11-43.78l14.55 4.41a22.8 22.8 0 0 0 10.27 26.27Z"/><path fill="#178600" d="M131.63 26.98a38 38 0 0 1 15.52-20.75l8.34 12.71a22.8 22.8 0 0 0-9.31 12.45Z"/><path fill="#ec915c" d="M147.15 6.23A38 38 0 0 1 168 0v15.2a22.8 22.8 0 0 0-12.51 3.74Z"/></svg>