<svg xmlns="http://www.w3.org/2000/svg" width="206" height="76" viewBox="0 0 206 76"><style>text{font-family:-apple-system,BlinkMacSystemFont,Segoe UI,Helvetica,Arial,sans-serif}</style><g><rect width="12" height="12" fill="#dea584" rx="2"/><text x="18" y="10" fill="#f0f6fc" font-size="11px" font-weight="700">Rust <tspan fill="#7d8590">32.8%</tspan></text></g><g transform="translate(0 16)"><rect width="12" height="12" fill="#3178c6" rx="2"/><text x="18" y="10" fill="#f0f6fc" font-size="11px" font-weight="700">TypeScript <tspan fill="#7d8590">25.7%</tspan></text></g><g transform="translate(0 32)"><rect width="12" height="12" fill="navy" rx="2"/><text x="18" y="10" fill="#f0f6fc" font-size="11px" font-weight="700">Lua <tspan fill="#7d8590">21.2%</tspan></text></g><g transform="translate(0 48)"><rect width="12" height="12" fill="#178600" rx="2"/><text x="18" y="10" fill="#f0f6fc" font-size="11px" font-weight="700">C# <tspan fill="#7d8590">11.1%</tspan></text></g><g transform="translate(0 64)"><rect width="12" height="12" fill="#ec915c" rx="2"/><text x="18" y="10" fill="#f0f6fc" font-size="11px" font-weight="700">Zig <tspan fill="#7d8590">9.2%</tspan></text></g><path fill="#dea584" d="M168 0a38 38 0 0 1 33.57 55.81l-13.43-7.12A22.8 22.8 0 0 0 168 15.2Z"/><path fill="#3178c6" d="M201.57 55.81a38 38 0 0 1-52.87 14.92l7.72-13.09a22.8 22.8 0 0 0 31.72-8.95Z"/><path fill="navy" d="M148.7 70.73A38 38 0 0 1 131.63 27l14.55 4.4a22.8 22.8 0 0 0 10.24 26.24Z"/><path fill="#178600" d="M131.63 27a38 38 0 0 1 15.51-20.77l8.35 12.71a22.8 22.8 0 0 0-9.31 12.46Z"/><path fill="#ec915c" d="M147.14 6.23A38 38 0 0 1 168 0v15.2a22.8 22.8 0 0 0-12.51 3.74Z"/></svg>