<svg xmlns="http://www.w3.org/2000/svg" width="206" height="76" viewBox="0 0 206 76"><style>text{font-family:-apple-system,BlinkMacSystemFont,Segoe UI,Helvetica,Arial,sans-serif}</style><g><rect width="12" height="12" fill="#dea584" rx="2"/><text x="18" y="10" fill="#f0f6fc" font-size="11px" font-weight="700">Rust <tspan fill="#7d8590">32.2%</tspan></text></g><g transform="translate(0 16)"><rect width="12" height="12" fill="#3178c6" rx="2"/><text x="18" y="10" fill="#f0f6fc" font-size="11px" font-weight="700">TypeScript <tspan fill="#7d8590">25.3%</tspan></text></g><g transform="translate(0 32)"><rect width="12" height="12" fill="navy" rx="2"/><text x="18" y="10" fill="#f0f6fc" font-size="11px" font-weight="700">Lua <tspan fill="#7d8590">22.5%</tspan></text></g><g transform="translate(0 48)"><rect width="12" height="12" fill="#178600" rx="2"/><text x="18" y="10" fill="#f0f6fc" font-size="11px" font-weight="700">C# <tspan fill="#7d8590">10.9%</tspan></text></g><g transform="translate(0 64)"><rect width="12" height="12" fill="#7e7eff" rx="2"/><text x="18" y="10" fill="#f0f6fc" font-size="11px" font-weight="700">Nix <tspan fill="#7d8590">9.1%</tspan></text></g><path fill="#dea584" d="M168 0a38 38 0 0 1 34.15 54.66l-13.66-6.67A22.8 22.8 0 0 0 168 15.2Z"/><path fill="#3178c6" d="M202.15 54.66a38 38 0 0 1-51.43 17.18l6.91-13.53a22.8 22.8 0 0 0 30.86-10.32Z"/><path fill="navy" d="M150.72 71.84a38 38 0 0 1-18.86-45.58l14.45 4.7a22.8 22.8 0 0 0 11.32 27.35Z"/><path fill="#178600" d="M131.86 26.26a38 38 0 0 1 15.57-20.21l8.23 12.78a22.8 22.8 0 0 0-9.35 12.13Z"/><path fill="#7e7eff" d="M147.43 6.05A38 38 0 0 1 168 0v15.2a22.8 22.8 0 0 0-12.34 3.63Z"/></svg>