<svg xmlns="http://www.w3.org/2000/svg" width="206" height="76" viewBox="0 0 206 76"><style>text{font-family:-apple-system,BlinkMacSystemFont,Segoe UI,Helvetica,Arial,sans-serif}</style><g><rect width="12" height="12" fill="#dea584" rx="2"/><text x="18" y="10" fill="#1f2328" font-size="11px" font-weight="700">Rust <tspan fill="#59636e">32.2%</tspan></text></g><g transform="translate(0 16)"><rect width="12" height="12" fill="#3178c6" rx="2"/><text x="18" y="10" fill="#1f2328" font-size="11px" font-weight="700">TypeScript <tspan fill="#59636e">25.2%</tspan></text></g><g transform="translate(0 32)"><rect width="12" height="12" fill="navy" rx="2"/><text x="18" y="10" fill="#1f2328" font-size="11px" font-weight="700">Lua <tspan fill="#59636e">22.5%</tspan></text></g><g transform="translate(0 48)"><rect width="12" height="12" fill="#178600" rx="2"/><text x="18" y="10" fill="#1f2328" font-size="11px" font-weight="700">C# <tspan fill="#59636e">10.9%</tspan></text></g><g transform="translate(0 64)"><rect width="12" height="12" fill="#7e7eff" rx="2"/><text x="18" y="10" fill="#1f2328" font-size="11px" font-weight="700">Nix <tspan fill="#59636e">9.3%</tspan></text></g><path fill="#dea584" d="M168 0a38 38 0 0 1 34.22 54.52l-13.69-6.61A22.8 22.8 0 0 0 168 15.2Z"/><path fill="#3178c6" d="M202.22 54.52a38 38 0 0 1-51.25 17.45l6.81-13.59a22.8 22.8 0 0 0 30.75-10.47Z"/><path fill="navy" d="M150.97 71.97a38 38 0 0 1-19.21-45.39l14.49 4.57a22.8 22.8 0 0 0 11.53 27.23Z"/><path fill="#178600" d="M131.76 26.58A38 38 0 0 1 147.1 6.26l8.36 12.7a22.8 22.8 0 0 0-9.21 12.19Z"/><path fill="#7e7eff" d="M147.1 6.26A38 38 0 0 1 168 0v15.2a22.8 22.8 0 0 0-12.54 3.76Z"/></svg>