<svg xmlns="http://www.w3.org/2000/svg" width="206" height="76" viewBox="0 0 206 76"><style>text{font-family:-apple-system,BlinkMacSystemFont,Segoe UI,Helvetica,Arial,sans-serif}</style><g><rect width="12" height="12" fill="#dea584" rx="2"/><text x="18" y="10" fill="#f0f6fc" font-size="11px" font-weight="700">Rust <tspan fill="#7d8590">40.2%</tspan></text></g><g transform="translate(0 16)"><rect width="12" height="12" fill="#3178c6" rx="2"/><text x="18" y="10" fill="#f0f6fc" font-size="11px" font-weight="700">TypeScript <tspan fill="#7d8590">19.4%</tspan></text></g><g transform="translate(0 32)"><rect width="12" height="12" fill="navy" rx="2"/><text x="18" y="10" fill="#f0f6fc" font-size="11px" font-weight="700">Lua <tspan fill="#7d8590">14.7%</tspan></text></g><g transform="translate(0 48)"><rect width="12" height="12" fill="#178600" rx="2"/><text x="18" y="10" fill="#f0f6fc" font-size="11px" font-weight="700">C# <tspan fill="#7d8590">14.2%</tspan></text></g><g transform="translate(0 64)"><rect width="12" height="12" fill="#ec915c" rx="2"/><text x="18" y="10" fill="#f0f6fc" font-size="11px" font-weight="700">Zig <tspan fill="#7d8590">11.5%</tspan></text></g><path fill="#dea584" d="M168 0a38 38 0 0 1 21.95 69.02l-8.78-12.41A22.8 22.8 0 0 0 168 15.2Z"/><path fill="#3178c6" d="M189.95 69.02a38 38 0 0 1-43.47.3l8.61-12.53a22.8 22.8 0 0 0 26.08-.18Z"/><path fill="navy" d="M146.48 69.32a38 38 0 0 1-16.44-29.61l15.18-.68a22.8 22.8 0 0 0 9.87 17.76Z"/><path fill="#178600" d="M130.04 39.71A38 38 0 0 1 142.86 9.5l10.06 11.4a22.8 22.8 0 0 0-7.7 18.13Z"/><path fill="#ec915c" d="M142.86 9.5A38 38 0 0 1 168 0v15.2a22.8 22.8 0 0 0-15.08 5.7Z"/></svg>