<svg xmlns="http://www.w3.org/2000/svg" width="290" height="140" viewBox="0 0 290 140"><style>text{font-family:-apple-system,BlinkMacSystemFont,Segoe UI,Helvetica,Arial,sans-serif}</style><g transform="translate(0 8)"><rect width="12" height="12" fill="#dea584" rx="2"/><text x="18" y="10" fill="#1f2328" font-size="11px">Rust <tspan fill="#59636e">37.2%</tspan></text></g><g transform="translate(0 24)"><rect width="12" height="12" fill="#3178c6" rx="2"/><text x="18" y="10" fill="#1f2328" font-size="11px">TypeScript <tspan fill="#59636e">19.9%</tspan></text></g><g transform="translate(0 40)"><rect width="12" height="12" fill="#178600" rx="2"/><text x="18" y="10" fill="#1f2328" font-size="11px">C# <tspan fill="#59636e">14.6%</tspan></text></g><g transform="translate(0 56)"><rect width="12" height="12" fill="navy" rx="2"/><text x="18" y="10" fill="#1f2328" font-size="11px">Lua <tspan fill="#59636e">14.5%</tspan></text></g><g transform="translate(0 72)"><rect width="12" height="12" fill="#ec915c" rx="2"/><text x="18" y="10" fill="#1f2328" font-size="11px">Zig <tspan fill="#59636e">11.8%</tspan></text></g><g transform="translate(0 88)"><rect width="12" height="12" fill="#89e051" rx="2"/><text x="18" y="10" fill="#1f2328" font-size="11px">Shell <tspan fill="#59636e">1.1%</tspan></text></g><g transform="translate(0 104)"><rect width="12" height="12" fill="#e34c26" rx="2"/><text x="18" y="10" fill="#1f2328" font-size="11px">HTML <tspan fill="#59636e">0.5%</tspan></text></g><g transform="translate(0 120)"><rect width="12" height="12" fill="#f34b7d" rx="2"/><text x="18" y="10" fill="#1f2328" font-size="11px">C++ <tspan fill="#59636e">0.4%</tspan></text></g><path fill="#dea584" d="M220 0a70 70 0 0 1 50.48 118.5l-20.19-19.4A42 42 0 0 0 220 28Z"/><path fill="#3178c6" d="M270.48 118.5a70 70 0 0 1-80.6 14.69l12.05-25.28a42 42 0 0 0 48.36-8.81Z"/><path fill="#178600" d="M189.88 133.19a70 70 0 0 1-38.35-48.64l27.39-5.82a42 42 0 0 0 23.01 29.18Z"/><path fill="navy" d="M151.53 84.55a70 70 0 0 1 15.13-59.88l21.33 18.13a42 42 0 0 0-9.07 35.93Z"/><path fill="#ec915c" d="M166.66 24.67A70 70 0 0 1 211.31.54l3.48 27.78a42 42 0 0 0-26.8 14.48Z"/><path fill="#89e051" d="M211.31.54a70 70 0 0 1 4.91-.44l1.51 27.96a42 42 0 0 0-2.94.26Z"/><path fill="#e34c26" d="M216.22.1a70 70 0 0 1 2.21-.08l.63 27.99a42 42 0 0 0-1.33.05Z"/><path fill="#f34b7d" d="M218.43.02A70 70 0 0 1 220 0v28a42 42 0 0 0-.94.01Z"/></svg>