<svg xmlns="http://www.w3.org/2000/svg" width="206" height="76" viewBox="0 0 206 76"><style>text{font-family:-apple-system,BlinkMacSystemFont,Segoe UI,Helvetica,Arial,sans-serif}</style><g><rect width="12" height="12" fill="#dea584" rx="2"/><text x="18" y="10" fill="#1f2328" font-size="11px" font-weight="700">Rust <tspan fill="#59636e">40.3%</tspan></text></g><g transform="translate(0 16)"><rect width="12" height="12" fill="#3178c6" rx="2"/><text x="18" y="10" fill="#1f2328" font-size="11px" font-weight="700">TypeScript <tspan fill="#59636e">19.4%</tspan></text></g><g transform="translate(0 32)"><rect width="12" height="12" fill="navy" rx="2"/><text x="18" y="10" fill="#1f2328" font-size="11px" font-weight="700">Lua <tspan fill="#59636e">15.0%</tspan></text></g><g transform="translate(0 48)"><rect width="12" height="12" fill="#178600" rx="2"/><text x="18" y="10" fill="#1f2328" font-size="11px" font-weight="700">C# <tspan fill="#59636e">13.8%</tspan></text></g><g transform="translate(0 64)"><rect width="12" height="12" fill="#ec915c" rx="2"/><text x="18" y="10" fill="#1f2328" font-size="11px" font-weight="700">Zig <tspan fill="#59636e">11.5%</tspan></text></g><path fill="#dea584" d="M168 0a38 38 0 0 1 21.77 69.15l-8.71-12.46A22.8 22.8 0 0 0 168 15.2Z"/><path fill="#3178c6" d="M189.77 69.15a38 38 0 0 1-43.53 0l8.7-12.46a22.8 22.8 0 0 0 26.12 0Z"/><path fill="navy" d="M146.24 69.15a38 38 0 0 1-16.23-30.36l15.19-.32a22.8 22.8 0 0 0 9.74 18.22Z"/><path fill="#178600" d="M130.01 38.79a38 38 0 0 1 12.82-29.26l10.07 11.39a22.8 22.8 0 0 0-7.7 17.55Z"/><path fill="#ec915c" d="M142.83 9.53A38 38 0 0 1 168 0v15.2a22.8 22.8 0 0 0-15.1 5.72Z"/></svg>