<svg xmlns="http://www.w3.org/2000/svg" width="350" height="255" viewBox="0 0 350 255"><style>text{font-family:-apple-system,BlinkMacSystemFont,Segoe UI,Helvetica,Arial,sans-serif}</style><rect width="350" height="255" fill="#0d1117" rx="4.5"/><text x="25" y="35" fill="#58a6ff" font-size="16px" font-weight="600">Languages</text><g transform="translate(25 55)"><rect width="12" height="12" fill="#dea584" rx="2"/><text x="18" y="10" fill="#c9d1d9" font-size="11px">Rust (36.5%)</text></g><g transform="translate(25 77)"><rect width="12" height="12" fill="#3178c6" rx="2"/><text x="18" y="10" fill="#c9d1d9" font-size="11px">TypeScript (19.7%)</text></g><g transform="translate(25 99)"><rect width="12" height="12" fill="#178600" rx="2"/><text x="18" y="10" fill="#c9d1d9" font-size="11px">C# (14.4%)</text></g><g transform="translate(25 121)"><rect width="12" height="12" fill="navy" rx="2"/><text x="18" y="10" fill="#c9d1d9" font-size="11px">Lua (14.4%)</text></g><g transform="translate(25 143)"><rect width="12" height="12" fill="#ec915c" rx="2"/><text x="18" y="10" fill="#c9d1d9" font-size="11px">Zig (11.7%)</text></g><g transform="translate(25 165)"><rect width="12" height="12" fill="#89e051" rx="2"/><text x="18" y="10" fill="#c9d1d9" font-size="11px">Shell (1.1%)</text></g><g transform="translate(25 187)"><rect width="12" height="12" fill="#e34c26" rx="2"/><text x="18" y="10" fill="#c9d1d9" font-size="11px">HTML (0.5%)</text></g><g transform="translate(25 209)"><rect width="12" height="12" fill="#f34b7d" rx="2"/><text x="18" y="10" fill="#c9d1d9" font-size="11px">C++ (0.4%)</text></g><path fill="#dea584" d="M245 65a70 70 0 0 1 52.43 116.38l-20.97-18.55A42 42 0 0 0 245 93Z"/><path fill="#3178c6" d="M297.43 181.38a70 70 0 0 1-79.04 18.36l10.64-25.89a42 42 0 0 0 47.43-11.02Z"/><path fill="#178600" d="M218.39 199.74a70 70 0 0 1-40.77-45.78l26.95-7.58a42 42 0 0 0 24.46 27.47Z"/><path fill="navy" d="M177.62 153.96a70 70 0 0 1 10.79-60.16l22.64 16.48a42 42 0 0 0-6.48 36.1Z"/><path fill="#ec915c" d="M188.41 93.8a70 70 0 0 1 42.17-27.3l5.77 27.4a42 42 0 0 0-25.3 16.38Z"/><path fill="#89e051" d="M230.58 66.5a70 70 0 0 1 4.8-.84l3.85 27.74a42 42 0 0 0-2.88.5Z"/><path fill="#e34c26" d="M235.38 65.66a70 70 0 0 1 2.17-.26l2.98 27.84a42 42 0 0 0-1.3.16Z"/><path fill="#f34b7d" d="M237.55 65.4a70 70 0 0 1 1.55-.15l2.36 27.9a42 42 0 0 0-.93.09Z"/></svg>