<svg xmlns="http://www.w3.org/2000/svg" width="206" height="76" viewBox="0 0 206 76"><style>text{font-family:-apple-system,BlinkMacSystemFont,Segoe UI,Helvetica,Arial,sans-serif}</style><g><rect width="12" height="12" fill="#dea584" rx="2"/><text x="18" y="10" fill="#f0f6fc" font-size="11px" font-weight="700">Rust <tspan fill="#7d8590">38.1%</tspan></text></g><g transform="translate(0 16)"><rect width="12" height="12" fill="#3178c6" rx="2"/><text x="18" y="10" fill="#f0f6fc" font-size="11px" font-weight="700">TypeScript <tspan fill="#7d8590">20.2%</tspan></text></g><g transform="translate(0 32)"><rect width="12" height="12" fill="#178600" rx="2"/><text x="18" y="10" fill="#f0f6fc" font-size="11px" font-weight="700">C# <tspan fill="#7d8590">14.8%</tspan></text></g><g transform="translate(0 48)"><rect width="12" height="12" fill="navy" rx="2"/><text x="18" y="10" fill="#f0f6fc" font-size="11px" font-weight="700">Lua <tspan fill="#7d8590">14.8%</tspan></text></g><g transform="translate(0 64)"><rect width="12" height="12" fill="#ec915c" rx="2"/><text x="18" y="10" fill="#f0f6fc" font-size="11px" font-weight="700">Zig <tspan fill="#7d8590">12.0%</tspan></text></g><path fill="#dea584" d="M168 0a38 38 0 0 1 25.78 65.92l-10.31-11.17A22.8 22.8 0 0 0 168 15.2Z"/><path fill="#3178c6" d="M193.78 65.92a38 38 0 0 1-44.85 4.95l7.63-13.15a22.8 22.8 0 0 0 26.91-2.97Z"/><path fill="#178600" d="M148.93 70.87a38 38 0 0 1-18.69-28.59l15.11-1.71a22.8 22.8 0 0 0 11.21 17.15Z"/><path fill="navy" d="M130.24 42.28a38 38 0 0 1 11.73-31.96l10.41 11.07a22.8 22.8 0 0 0-7.03 19.18Z"/><path fill="#ec915c" d="M141.97 10.32A38 38 0 0 1 168 0v15.2a22.8 22.8 0 0 0-15.62 6.19Z"/></svg>