<svg xmlns="http://www.w3.org/2000/svg" width="290" height="140" viewBox="0 0 290 140"><style>text{font-family:-apple-system,BlinkMacSystemFont,Segoe UI,Helvetica,Arial,sans-serif}</style><g transform="translate(0 8)"><rect width="12" height="12" fill="#dea584" rx="2"/><text x="18" y="10" fill="#333" font-size="11px">Rust (36.6%)</text></g><g transform="translate(0 24)"><rect width="12" height="12" fill="#3178c6" rx="2"/><text x="18" y="10" fill="#333" font-size="11px">TypeScript (19.7%)</text></g><g transform="translate(0 40)"><rect width="12" height="12" fill="#178600" rx="2"/><text x="18" y="10" fill="#333" font-size="11px">C# (14.4%)</text></g><g transform="translate(0 56)"><rect width="12" height="12" fill="navy" rx="2"/><text x="18" y="10" fill="#333" font-size="11px">Lua (14.4%)</text></g><g transform="translate(0 72)"><rect width="12" height="12" fill="#ec915c" rx="2"/><text x="18" y="10" fill="#333" font-size="11px">Zig (11.7%)</text></g><g transform="translate(0 88)"><rect width="12" height="12" fill="#89e051" rx="2"/><text x="18" y="10" fill="#333" font-size="11px">Shell (1.1%)</text></g><g transform="translate(0 104)"><rect width="12" height="12" fill="#e34c26" rx="2"/><text x="18" y="10" fill="#333" font-size="11px">HTML (0.5%)</text></g><g transform="translate(0 120)"><rect width="12" height="12" fill="#f34b7d" rx="2"/><text x="18" y="10" fill="#333" font-size="11px">C++ (0.4%)</text></g><path fill="#dea584" d="M220 0a70 70 0 0 1 52.36 116.46l-20.94-18.59A42 42 0 0 0 220 28Z"/><path fill="#3178c6" d="M272.36 116.46a70 70 0 0 1-79.04 18.26l10.67-25.89a42 42 0 0 0 47.43-10.96Z"/><path fill="#178600" d="M193.32 134.72a70 70 0 0 1-40.71-45.8l26.95-7.57a42 42 0 0 0 24.43 27.48Z"/><path fill="navy" d="M152.61 88.92a70 70 0 0 1 10.82-60.14l22.63 16.49a42 42 0 0 0-6.5 36.08Z"/><path fill="#ec915c" d="M163.43 28.78A70 70 0 0 1 205.58 1.5l5.77 27.4a42 42 0 0 0-25.29 16.37Z"/><path fill="#89e051" d="M205.58 1.5a70 70 0 0 1 4.81-.84l3.84 27.74a42 42 0 0 0-2.88.5Z"/><path fill="#e34c26" d="M210.39.66a70 70 0 0 1 2.16-.26l2.98 27.84a42 42 0 0 0-1.3.16Z"/><path fill="#f34b7d" d="M212.55.4a70 70 0 0 1 1.55-.15l2.36 27.9a42 42 0 0 0-.93.09Z"/></svg>