<svg xmlns="http://www.w3.org/2000/svg" width="350" height="200" viewBox="0 0 350 200">
  <style>
    text { font-family: -apple-system, BlinkMacSystemFont, 'Segoe UI', Helvetica, Arial, sans-serif; }
  </style>
  <rect width="349" height="199" x="0.5" y="0.5" rx="4.5" fill="#ffffff" stroke="#e4e2e2"/>
  <g transform="translate(15, 15)">
    <path d="M 100.00 40.00 A 60 60 0 0 1 155.35 123.16 L 132.29 113.51 A 35 35 0 0 0 100.00 65.00 Z" fill="#555555"/><path d="M 155.35 123.16 A 60 60 0 0 1 72.34 153.24 L 83.86 131.06 A 35 35 0 0 0 132.29 113.51 Z" fill="#178600"/><path d="M 72.34 153.24 A 60 60 0 0 1 43.68 79.31 L 67.15 87.93 A 35 35 0 0 0 83.86 131.06 Z" fill="#f34b7d"/><path d="M 43.68 79.31 A 60 60 0 0 1 53.66 61.89 L 72.97 77.77 A 35 35 0 0 0 67.15 87.93 Z" fill="#dea584"/><path d="M 53.66 61.89 A 60 60 0 0 1 62.42 53.23 L 78.08 72.72 A 35 35 0 0 0 72.97 77.77 Z" fill="#6866fb"/><path d="M 62.42 53.23 A 60 60 0 0 1 70.48 47.77 L 82.78 69.53 A 35 35 0 0 0 78.08 72.72 Z" fill="#3178c6"/><path d="M 70.48 47.77 A 60 60 0 0 1 77.08 44.55 L 86.63 67.65 A 35 35 0 0 0 82.78 69.53 Z" fill="#000080"/><path d="M 77.08 44.55 A 60 60 0 0 1 82.47 42.62 L 89.77 66.53 A 35 35 0 0 0 86.63 67.65 Z" fill="#ec915c"/>
  </g>
  <g transform="translate(200, 35)">
                <rect width="12" height="12" rx="2" fill="#555555"/>
                <text x="18" y="10" fill="#333333" font-size="11">C (31.3%)</text>
            </g><g transform="translate(200, 57)">
                <rect width="12" height="12" rx="2" fill="#178600"/>
                <text x="18" y="10" fill="#333333" font-size="11">C# (26.3%)</text>
            </g><g transform="translate(200, 79)">
                <rect width="12" height="12" rx="2" fill="#f34b7d"/>
                <text x="18" y="10" fill="#333333" font-size="11">C++ (23.0%)</text>
            </g><g transform="translate(200, 101)">
                <rect width="12" height="12" rx="2" fill="#dea584"/>
                <text x="18" y="10" fill="#333333" font-size="11">Rust (5.4%)</text>
            </g><g transform="translate(200, 123)">
                <rect width="12" height="12" rx="2" fill="#6866fb"/>
                <text x="18" y="10" fill="#333333" font-size="11">Objective-C++ (3.3%)</text>
            </g><g transform="translate(200, 145)">
                <rect width="12" height="12" rx="2" fill="#3178c6"/>
                <text x="18" y="10" fill="#333333" font-size="11">TypeScript (2.6%)</text>
            </g><g transform="translate(200, 167)">
                <rect width="12" height="12" rx="2" fill="#000080"/>
                <text x="18" y="10" fill="#333333" font-size="11">Lua (1.9%)</text>
            </g><g transform="translate(200, 189)">
                <rect width="12" height="12" rx="2" fill="#ec915c"/>
                <text x="18" y="10" fill="#333333" font-size="11">Zig (1.5%)</text>
            </g>
</svg>