<svg xmlns="http://www.w3.org/2000/svg" width="206" height="76" viewBox="0 0 206 76"><style>text{font-family:-apple-system,BlinkMacSystemFont,Segoe UI,Helvetica,Arial,sans-serif}</style><g><rect width="12" height="12" fill="#dea584" rx="2"/><text x="18" y="10" fill="#f0f6fc" font-size="11px" font-weight="700">Rust <tspan fill="#7d8590">32.2%</tspan></text></g><g transform="translate(0 16)"><rect width="12" height="12" fill="#3178c6" rx="2"/><text x="18" y="10" fill="#f0f6fc" font-size="11px" font-weight="700">TypeScript <tspan fill="#7d8590">25.2%</tspan></text></g><g transform="translate(0 32)"><rect width="12" height="12" fill="navy" rx="2"/><text x="18" y="10" fill="#f0f6fc" font-size="11px" font-weight="700">Lua <tspan fill="#7d8590">22.5%</tspan></text></g><g transform="translate(0 48)"><rect width="12" height="12" fill="#178600" rx="2"/><text x="18" y="10" fill="#f0f6fc" font-size="11px" font-weight="700">C# <tspan fill="#7d8590">10.9%</tspan></text></g><g transform="translate(0 64)"><rect width="12" height="12" fill="#7e7eff" rx="2"/><text x="18" y="10" fill="#f0f6fc" font-size="11px" font-weight="700">Nix <tspan fill="#7d8590">9.3%</tspan></text></g><path fill="#dea584" d="M168 0a38 38 0 0 1 34.22 54.53l-13.69-6.61A22.8 22.8 0 0 0 168 15.2Z"/><path fill="#3178c6" d="M202.22 54.53a38 38 0 0 1-51.27 17.43l6.82-13.58a22.8 22.8 0 0 0 30.76-10.46Z"/><path fill="navy" d="M150.95 71.96a38 38 0 0 1-19.18-45.41l14.49 4.58a22.8 22.8 0 0 0 11.51 27.25Z"/><path fill="#178600" d="M131.77 26.55a38 38 0 0 1 15.36-20.31l8.35 12.71a22.8 22.8 0 0 0-9.22 12.18Z"/><path fill="#7e7eff" d="M147.13 6.24A38 38 0 0 1 168 0v15.2a22.8 22.8 0 0 0-12.52 3.75Z"/></svg>