<svg xmlns="http://www.w3.org/2000/svg" width="206" height="76" viewBox="0 0 206 76"><style>text{font-family:-apple-system,BlinkMacSystemFont,Segoe UI,Helvetica,Arial,sans-serif}</style><g><rect width="12" height="12" fill="#dea584" rx="2"/><text x="18" y="10" fill="#f0f6fc" font-size="11px" font-weight="700">Rust <tspan fill="#7d8590">40.3%</tspan></text></g><g transform="translate(0 16)"><rect width="12" height="12" fill="#3178c6" rx="2"/><text x="18" y="10" fill="#f0f6fc" font-size="11px" font-weight="700">TypeScript <tspan fill="#7d8590">19.4%</tspan></text></g><g transform="translate(0 32)"><rect width="12" height="12" fill="navy" rx="2"/><text x="18" y="10" fill="#f0f6fc" font-size="11px" font-weight="700">Lua <tspan fill="#7d8590">15.0%</tspan></text></g><g transform="translate(0 48)"><rect width="12" height="12" fill="#178600" rx="2"/><text x="18" y="10" fill="#f0f6fc" font-size="11px" font-weight="700">C# <tspan fill="#7d8590">13.8%</tspan></text></g><g transform="translate(0 64)"><rect width="12" height="12" fill="#ec915c" rx="2"/><text x="18" y="10" fill="#f0f6fc" font-size="11px" font-weight="700">Zig <tspan fill="#7d8590">11.5%</tspan></text></g><path fill="#dea584" d="M168 0a38 38 0 0 1 21.78 69.14l-8.71-12.46A22.8 22.8 0 0 0 168 15.2Z"/><path fill="#3178c6" d="M189.78 69.14a38 38 0 0 1-43.53.02l8.7-12.46a22.8 22.8 0 0 0 26.12-.02Z"/><path fill="navy" d="M146.25 69.16a38 38 0 0 1-16.24-30.38l15.19-.31a22.8 22.8 0 0 0 9.75 18.23Z"/><path fill="#178600" d="M130.01 38.78a38 38 0 0 1 12.82-29.25l10.07 11.39a22.8 22.8 0 0 0-7.7 17.55Z"/><path fill="#ec915c" d="M142.83 9.53A38 38 0 0 1 168 0v15.2a22.8 22.8 0 0 0-15.1 5.72Z"/></svg>