<svg xmlns="http://www.w3.org/2000/svg" width="206" height="76" viewBox="0 0 206 76"><style>text{font-family:-apple-system,BlinkMacSystemFont,Segoe UI,Helvetica,Arial,sans-serif}</style><g><rect width="12" height="12" fill="#dea584" rx="2"/><text x="18" y="10" fill="#1f2328" font-size="11px" font-weight="700">Rust <tspan fill="#59636e">40.2%</tspan></text></g><g transform="translate(0 16)"><rect width="12" height="12" fill="#3178c6" rx="2"/><text x="18" y="10" fill="#1f2328" font-size="11px" font-weight="700">TypeScript <tspan fill="#59636e">19.4%</tspan></text></g><g transform="translate(0 32)"><rect width="12" height="12" fill="navy" rx="2"/><text x="18" y="10" fill="#1f2328" font-size="11px" font-weight="700">Lua <tspan fill="#59636e">14.7%</tspan></text></g><g transform="translate(0 48)"><rect width="12" height="12" fill="#178600" rx="2"/><text x="18" y="10" fill="#1f2328" font-size="11px" font-weight="700">C# <tspan fill="#59636e">14.2%</tspan></text></g><g transform="translate(0 64)"><rect width="12" height="12" fill="#ec915c" rx="2"/><text x="18" y="10" fill="#1f2328" font-size="11px" font-weight="700">Zig <tspan fill="#59636e">11.5%</tspan></text></g><path fill="#dea584" d="M168 0a38 38 0 0 1 21.97 69l-8.79-12.4A22.8 22.8 0 0 0 168 15.2Z"/><path fill="#3178c6" d="M189.97 69a38 38 0 0 1-43.46.34l8.59-12.54a22.8 22.8 0 0 0 26.08-.2Z"/><path fill="navy" d="M146.51 69.34a38 38 0 0 1-16.47-29.64l15.18-.68a22.8 22.8 0 0 0 9.88 17.78Z"/><path fill="#178600" d="M130.04 39.7a38 38 0 0 1 12.82-30.2l10.06 11.4a22.8 22.8 0 0 0-7.7 18.12Z"/><path fill="#ec915c" d="M142.86 9.5A38 38 0 0 1 168 0v15.2a22.8 22.8 0 0 0-15.08 5.7Z"/></svg>