<svg xmlns="http://www.w3.org/2000/svg" width="206" height="76" viewBox="0 0 206 76"><style>text{font-family:-apple-system,BlinkMacSystemFont,Segoe UI,Helvetica,Arial,sans-serif}</style><g><rect width="12" height="12" fill="#dea584" rx="2"/><text x="18" y="10" fill="#f0f6fc" font-size="11px" font-weight="700">Rust <tspan fill="#7d8590">32.2%</tspan></text></g><g transform="translate(0 16)"><rect width="12" height="12" fill="#3178c6" rx="2"/><text x="18" y="10" fill="#f0f6fc" font-size="11px" font-weight="700">TypeScript <tspan fill="#7d8590">25.3%</tspan></text></g><g transform="translate(0 32)"><rect width="12" height="12" fill="navy" rx="2"/><text x="18" y="10" fill="#f0f6fc" font-size="11px" font-weight="700">Lua <tspan fill="#7d8590">22.5%</tspan></text></g><g transform="translate(0 48)"><rect width="12" height="12" fill="#178600" rx="2"/><text x="18" y="10" fill="#f0f6fc" font-size="11px" font-weight="700">C# <tspan fill="#7d8590">10.9%</tspan></text></g><g transform="translate(0 64)"><rect width="12" height="12" fill="#7e7eff" rx="2"/><text x="18" y="10" fill="#f0f6fc" font-size="11px" font-weight="700">Nix <tspan fill="#7d8590">9.2%</tspan></text></g><path fill="#dea584" d="M168 0a38 38 0 0 1 34.2 54.57l-13.68-6.63A22.8 22.8 0 0 0 168 15.2Z"/><path fill="#3178c6" d="M202.2 54.57a38 38 0 0 1-51.32 17.36l6.85-13.57a22.8 22.8 0 0 0 30.79-10.42Z"/><path fill="navy" d="M150.88 71.93a38 38 0 0 1-19.08-45.48l14.48 4.62a22.8 22.8 0 0 0 11.45 27.29Z"/><path fill="#178600" d="M131.8 26.45a38 38 0 0 1 15.43-20.27l8.31 12.73a22.8 22.8 0 0 0-9.26 12.16Z"/><path fill="#7e7eff" d="M147.23 6.18A38 38 0 0 1 168 0v15.2a22.8 22.8 0 0 0-12.46 3.71Z"/></svg>