<svg xmlns="http://www.w3.org/2000/svg" width="206" height="76" viewBox="0 0 206 76"><style>text{font-family:-apple-system,BlinkMacSystemFont,Segoe UI,Helvetica,Arial,sans-serif}</style><g><rect width="12" height="12" fill="#dea584" rx="2"/><text x="18" y="10" fill="#1f2328" font-size="11px" font-weight="700">Rust <tspan fill="#59636e">39.4%</tspan></text></g><g transform="translate(0 16)"><rect width="12" height="12" fill="#3178c6" rx="2"/><text x="18" y="10" fill="#1f2328" font-size="11px" font-weight="700">TypeScript <tspan fill="#59636e">19.6%</tspan></text></g><g transform="translate(0 32)"><rect width="12" height="12" fill="navy" rx="2"/><text x="18" y="10" fill="#1f2328" font-size="11px" font-weight="700">Lua <tspan fill="#59636e">15.0%</tspan></text></g><g transform="translate(0 48)"><rect width="12" height="12" fill="#178600" rx="2"/><text x="18" y="10" fill="#1f2328" font-size="11px" font-weight="700">C# <tspan fill="#59636e">14.4%</tspan></text></g><g transform="translate(0 64)"><rect width="12" height="12" fill="#ec915c" rx="2"/><text x="18" y="10" fill="#1f2328" font-size="11px" font-weight="700">Zig <tspan fill="#59636e">11.6%</tspan></text></g><path fill="#dea584" d="M168 0a38 38 0 0 1 23.47 67.88l-9.39-11.95A22.8 22.8 0 0 0 168 15.2Z"/><path fill="#3178c6" d="M191.47 67.88a38 38 0 0 1-43.84 2.2l8.15-12.83a22.8 22.8 0 0 0 26.3-1.32Z"/><path fill="navy" d="M147.63 70.08a38 38 0 0 1-17.56-29.7l15.17-.95a22.8 22.8 0 0 0 10.54 17.82Z"/><path fill="#178600" d="M130.07 40.38a38 38 0 0 1 12.56-30.67l10.15 11.31a22.8 22.8 0 0 0-7.54 18.41Z"/><path fill="#ec915c" d="M142.63 9.71A38 38 0 0 1 168 0v15.2a22.8 22.8 0 0 0-15.22 5.82Z"/></svg>