<svg xmlns="http://www.w3.org/2000/svg" width="206" height="76" viewBox="0 0 206 76"><style>text{font-family:-apple-system,BlinkMacSystemFont,Segoe UI,Helvetica,Arial,sans-serif}</style><g><rect width="12" height="12" fill="#dea584" rx="2"/><text x="18" y="10" fill="#f0f6fc" font-size="11px">Rust <tspan fill="#7d8590">37.9%</tspan></text></g><g transform="translate(0 16)"><rect width="12" height="12" fill="#3178c6" rx="2"/><text x="18" y="10" fill="#f0f6fc" font-size="11px">TypeScript <tspan fill="#7d8590">20.3%</tspan></text></g><g transform="translate(0 32)"><rect width="12" height="12" fill="#178600" rx="2"/><text x="18" y="10" fill="#f0f6fc" font-size="11px">C# <tspan fill="#7d8590">14.9%</tspan></text></g><g transform="translate(0 48)"><rect width="12" height="12" fill="navy" rx="2"/><text x="18" y="10" fill="#f0f6fc" font-size="11px">Lua <tspan fill="#7d8590">14.8%</tspan></text></g><g transform="translate(0 64)"><rect width="12" height="12" fill="#ec915c" rx="2"/><text x="18" y="10" fill="#f0f6fc" font-size="11px">Zig <tspan fill="#7d8590">12.1%</tspan></text></g><path fill="#dea584" d="M168 0a38 38 0 0 1 26.14 65.58l-10.46-11.03A22.8 22.8 0 0 0 168 15.2Z"/><path fill="#3178c6" d="M194.14 65.58a38 38 0 0 1-44.92 5.45l7.51-13.21a22.8 22.8 0 0 0 26.95-3.27Z"/><path fill="#178600" d="M149.22 71.03a38 38 0 0 1-18.95-28.53l15.09-1.8a22.8 22.8 0 0 0 11.37 17.12Z"/><path fill="navy" d="M130.27 42.5a38 38 0 0 1 11.63-32.12l10.44 11.05a22.8 22.8 0 0 0-6.98 19.27Z"/><path fill="#ec915c" d="M141.9 10.38A38 38 0 0 1 168 0v15.2a22.8 22.8 0 0 0-15.66 6.23Z"/></svg>