<svg xmlns="http://www.w3.org/2000/svg" width="206" height="76" viewBox="0 0 206 76"><style>text{font-family:-apple-system,BlinkMacSystemFont,Segoe UI,Helvetica,Arial,sans-serif}</style><g><rect width="12" height="12" fill="#dea584" rx="2"/><text x="18" y="10" fill="#1f2328" font-size="11px" font-weight="700">Rust <tspan fill="#59636e">32.2%</tspan></text></g><g transform="translate(0 16)"><rect width="12" height="12" fill="#3178c6" rx="2"/><text x="18" y="10" fill="#1f2328" font-size="11px" font-weight="700">TypeScript <tspan fill="#59636e">25.2%</tspan></text></g><g transform="translate(0 32)"><rect width="12" height="12" fill="navy" rx="2"/><text x="18" y="10" fill="#1f2328" font-size="11px" font-weight="700">Lua <tspan fill="#59636e">22.5%</tspan></text></g><g transform="translate(0 48)"><rect width="12" height="12" fill="#178600" rx="2"/><text x="18" y="10" fill="#1f2328" font-size="11px" font-weight="700">C# <tspan fill="#59636e">10.9%</tspan></text></g><g transform="translate(0 64)"><rect width="12" height="12" fill="#7e7eff" rx="2"/><text x="18" y="10" fill="#1f2328" font-size="11px" font-weight="700">Nix <tspan fill="#59636e">9.2%</tspan></text></g><path fill="#dea584" d="M168 0a38 38 0 0 1 34.21 54.54l-13.68-6.61A22.8 22.8 0 0 0 168 15.2Z"/><path fill="#3178c6" d="M202.21 54.54a38 38 0 0 1-51.28 17.41l6.83-13.58a22.8 22.8 0 0 0 30.77-10.44Z"/><path fill="navy" d="M150.93 71.95a38 38 0 0 1-19.15-45.43l14.49 4.59a22.8 22.8 0 0 0 11.49 27.26Z"/><path fill="#178600" d="M131.78 26.52a38 38 0 0 1 15.39-20.3l8.33 12.71a22.8 22.8 0 0 0-9.23 12.18Z"/><path fill="#7e7eff" d="M147.17 6.22A38 38 0 0 1 168 0v15.2a22.8 22.8 0 0 0-12.5 3.73Z"/></svg>