<svg xmlns="http://www.w3.org/2000/svg" width="206" height="76" viewBox="0 0 206 76"><style>text{font-family:-apple-system,BlinkMacSystemFont,Segoe UI,Helvetica,Arial,sans-serif}</style><g><rect width="12" height="12" fill="#dea584" rx="2"/><text x="18" y="10" fill="#1f2328" font-size="11px" font-weight="700">Rust <tspan fill="#59636e">36.1%</tspan></text></g><g transform="translate(0 16)"><rect width="12" height="12" fill="#3178c6" rx="2"/><text x="18" y="10" fill="#1f2328" font-size="11px" font-weight="700">TypeScript <tspan fill="#59636e">28.3%</tspan></text></g><g transform="translate(0 32)"><rect width="12" height="12" fill="navy" rx="2"/><text x="18" y="10" fill="#1f2328" font-size="11px" font-weight="700">Lua <tspan fill="#59636e">13.2%</tspan></text></g><g transform="translate(0 48)"><rect width="12" height="12" fill="#178600" rx="2"/><text x="18" y="10" fill="#1f2328" font-size="11px" font-weight="700">C# <tspan fill="#59636e">12.2%</tspan></text></g><g transform="translate(0 64)"><rect width="12" height="12" fill="#ec915c" rx="2"/><text x="18" y="10" fill="#1f2328" font-size="11px" font-weight="700">Zig <tspan fill="#59636e">10.2%</tspan></text></g><path fill="#dea584" d="M168 0a38 38 0 0 1 29.17 62.36l-11.67-9.75A22.8 22.8 0 0 0 168 15.2Z"/><path fill="#3178c6" d="M197.17 62.36a38 38 0 0 1-59.03-.86l11.94-9.4a22.8 22.8 0 0 0 35.42.51Z"/><path fill="navy" d="M138.14 61.5a38 38 0 0 1-7.63-29.73l15 2.49a22.8 22.8 0 0 0 4.57 17.84Z"/><path fill="#178600" d="M130.51 31.77a38 38 0 0 1 14.81-24.26l9.07 12.2a22.8 22.8 0 0 0-8.88 14.55Z"/><path fill="#ec915c" d="M145.32 7.51A38 38 0 0 1 168 0v15.2a22.8 22.8 0 0 0-13.61 4.51Z"/></svg>