<svg xmlns="http://www.w3.org/2000/svg" width="206" height="76" viewBox="0 0 206 76"><style>text{font-family:-apple-system,BlinkMacSystemFont,Segoe UI,Helvetica,Arial,sans-serif}</style><g><rect width="12" height="12" fill="#dea584" rx="2"/><text x="18" y="10" fill="#f0f6fc" font-size="11px" font-weight="700">Rust <tspan fill="#7d8590">38.0%</tspan></text></g><g transform="translate(0 16)"><rect width="12" height="12" fill="#3178c6" rx="2"/><text x="18" y="10" fill="#f0f6fc" font-size="11px" font-weight="700">TypeScript <tspan fill="#7d8590">20.1%</tspan></text></g><g transform="translate(0 32)"><rect width="12" height="12" fill="navy" rx="2"/><text x="18" y="10" fill="#f0f6fc" font-size="11px" font-weight="700">Lua <tspan fill="#7d8590">15.2%</tspan></text></g><g transform="translate(0 48)"><rect width="12" height="12" fill="#178600" rx="2"/><text x="18" y="10" fill="#f0f6fc" font-size="11px" font-weight="700">C# <tspan fill="#7d8590">14.7%</tspan></text></g><g transform="translate(0 64)"><rect width="12" height="12" fill="#ec915c" rx="2"/><text x="18" y="10" fill="#f0f6fc" font-size="11px" font-weight="700">Zig <tspan fill="#7d8590">11.9%</tspan></text></g><path fill="#dea584" d="M168 0a38 38 0 0 1 26.06 65.65l-10.42-11.06A22.8 22.8 0 0 0 168 15.2Z"/><path fill="#3178c6" d="M194.06 65.65a38 38 0 0 1-44.54 5.55l7.39-13.28a22.8 22.8 0 0 0 26.73-3.33Z"/><path fill="navy" d="M149.52 71.2A38 38 0 0 1 130.21 42l15.12-1.6a22.8 22.8 0 0 0 11.58 17.52Z"/><path fill="#178600" d="M130.21 42a38 38 0 0 1 11.89-31.8l10.36 11.12a22.8 22.8 0 0 0-7.13 19.08Z"/><path fill="#ec915c" d="M142.1 10.2A38 38 0 0 1 168 0v15.2a22.8 22.8 0 0 0-15.54 6.12Z"/></svg>