<svg xmlns="http://www.w3.org/2000/svg" width="206" height="76" viewBox="0 0 206 76"><style>text{font-family:-apple-system,BlinkMacSystemFont,Segoe UI,Helvetica,Arial,sans-serif}</style><g><rect width="12" height="12" fill="#dea584" rx="2"/><text x="18" y="10" fill="#f0f6fc" font-size="11px" font-weight="700">Rust <tspan fill="#7d8590">36.0%</tspan></text></g><g transform="translate(0 16)"><rect width="12" height="12" fill="#3178c6" rx="2"/><text x="18" y="10" fill="#f0f6fc" font-size="11px" font-weight="700">TypeScript <tspan fill="#7d8590">28.2%</tspan></text></g><g transform="translate(0 32)"><rect width="12" height="12" fill="navy" rx="2"/><text x="18" y="10" fill="#f0f6fc" font-size="11px" font-weight="700">Lua <tspan fill="#7d8590">13.4%</tspan></text></g><g transform="translate(0 48)"><rect width="12" height="12" fill="#178600" rx="2"/><text x="18" y="10" fill="#f0f6fc" font-size="11px" font-weight="700">C# <tspan fill="#7d8590">12.2%</tspan></text></g><g transform="translate(0 64)"><rect width="12" height="12" fill="#ec915c" rx="2"/><text x="18" y="10" fill="#f0f6fc" font-size="11px" font-weight="700">Zig <tspan fill="#7d8590">10.2%</tspan></text></g><path fill="#dea584" d="M168 0a38 38 0 0 1 29.3 62.2l-11.72-9.68A22.8 22.8 0 0 0 168 15.2Z"/><path fill="#3178c6" d="M197.3 62.2a38 38 0 0 1-58.93-.41l11.85-9.52a22.8 22.8 0 0 0 35.36.25Z"/><path fill="navy" d="M138.37 61.79a38 38 0 0 1-7.84-30.14l14.99 2.54a22.8 22.8 0 0 0 4.7 18.08Z"/><path fill="#178600" d="M130.53 31.65a38 38 0 0 1 14.83-24.17l9.06 12.21a22.8 22.8 0 0 0-8.9 14.5Z"/><path fill="#ec915c" d="M145.36 7.48A38 38 0 0 1 168 0v15.2a22.8 22.8 0 0 0-13.58 4.49Z"/></svg>