<svg xmlns="http://www.w3.org/2000/svg" width="206" height="76" viewBox="0 0 206 76"><style>text{font-family:-apple-system,BlinkMacSystemFont,Segoe UI,Helvetica,Arial,sans-serif}</style><g><rect width="12" height="12" fill="#dea584" rx="2"/><text x="18" y="10" fill="#1f2328" font-size="11px" font-weight="700">Rust <tspan fill="#59636e">39.5%</tspan></text></g><g transform="translate(0 16)"><rect width="12" height="12" fill="#3178c6" rx="2"/><text x="18" y="10" fill="#1f2328" font-size="11px" font-weight="700">TypeScript <tspan fill="#59636e">19.6%</tspan></text></g><g transform="translate(0 32)"><rect width="12" height="12" fill="navy" rx="2"/><text x="18" y="10" fill="#1f2328" font-size="11px" font-weight="700">Lua <tspan fill="#59636e">14.9%</tspan></text></g><g transform="translate(0 48)"><rect width="12" height="12" fill="#178600" rx="2"/><text x="18" y="10" fill="#1f2328" font-size="11px" font-weight="700">C# <tspan fill="#59636e">14.4%</tspan></text></g><g transform="translate(0 64)"><rect width="12" height="12" fill="#ec915c" rx="2"/><text x="18" y="10" fill="#1f2328" font-size="11px" font-weight="700">Zig <tspan fill="#59636e">11.6%</tspan></text></g><path fill="#dea584" d="M168 0a38 38 0 0 1 23.37 67.96l-9.35-11.98A22.8 22.8 0 0 0 168 15.2Z"/><path fill="#3178c6" d="M191.37 67.96a38 38 0 0 1-43.89 2.02l8.21-12.79a22.8 22.8 0 0 0 26.33-1.21Z"/><path fill="navy" d="M147.48 69.98a38 38 0 0 1-17.4-29.51l15.17-.99a22.8 22.8 0 0 0 10.44 17.71Z"/><path fill="#178600" d="M130.08 40.47a38 38 0 0 1 12.53-30.74l10.15 11.31a22.8 22.8 0 0 0-7.51 18.44Z"/><path fill="#ec915c" d="M142.61 9.73A38 38 0 0 1 168 0v15.2a22.8 22.8 0 0 0-15.24 5.84Z"/></svg>