<svg xmlns="http://www.w3.org/2000/svg" width="206" height="76" viewBox="0 0 206 76"><style>text{font-family:-apple-system,BlinkMacSystemFont,Segoe UI,Helvetica,Arial,sans-serif}</style><g><rect width="12" height="12" fill="#dea584" rx="2"/><text x="18" y="10" fill="#f0f6fc" font-size="11px" font-weight="700">Rust <tspan fill="#7d8590">38.2%</tspan></text></g><g transform="translate(0 16)"><rect width="12" height="12" fill="#3178c6" rx="2"/><text x="18" y="10" fill="#f0f6fc" font-size="11px" font-weight="700">TypeScript <tspan fill="#7d8590">20.2%</tspan></text></g><g transform="translate(0 32)"><rect width="12" height="12" fill="#178600" rx="2"/><text x="18" y="10" fill="#f0f6fc" font-size="11px" font-weight="700">C# <tspan fill="#7d8590">14.8%</tspan></text></g><g transform="translate(0 48)"><rect width="12" height="12" fill="navy" rx="2"/><text x="18" y="10" fill="#f0f6fc" font-size="11px" font-weight="700">Lua <tspan fill="#7d8590">14.8%</tspan></text></g><g transform="translate(0 64)"><rect width="12" height="12" fill="#ec915c" rx="2"/><text x="18" y="10" fill="#f0f6fc" font-size="11px" font-weight="700">Zig <tspan fill="#7d8590">12.0%</tspan></text></g><path fill="#dea584" d="M168 0a38 38 0 0 1 25.72 65.98l-10.29-11.19A22.8 22.8 0 0 0 168 15.2Z"/><path fill="#3178c6" d="M193.72 65.98a38 38 0 0 1-44.83 4.87l7.65-13.14a22.8 22.8 0 0 0 26.89-2.92Z"/><path fill="#178600" d="M148.89 70.85a38 38 0 0 1-18.65-28.57l15.1-1.71a22.8 22.8 0 0 0 11.2 17.14Z"/><path fill="navy" d="M130.24 42.28a38 38 0 0 1 11.75-31.98l10.4 11.08a22.8 22.8 0 0 0-7.05 19.19Z"/><path fill="#ec915c" d="M141.99 10.3A38 38 0 0 1 168 0v15.2a22.8 22.8 0 0 0-15.61 6.18Z"/></svg>