<svg xmlns="http://www.w3.org/2000/svg" width="206" height="76" viewBox="0 0 206 76"><style>text{font-family:-apple-system,BlinkMacSystemFont,Segoe UI,Helvetica,Arial,sans-serif}</style><g><rect width="12" height="12" fill="#dea584" rx="2"/><text x="18" y="10" fill="#f0f6fc" font-size="11px" font-weight="700">Rust <tspan fill="#7d8590">35.7%</tspan></text></g><g transform="translate(0 16)"><rect width="12" height="12" fill="#3178c6" rx="2"/><text x="18" y="10" fill="#f0f6fc" font-size="11px" font-weight="700">TypeScript <tspan fill="#7d8590">28.4%</tspan></text></g><g transform="translate(0 32)"><rect width="12" height="12" fill="navy" rx="2"/><text x="18" y="10" fill="#f0f6fc" font-size="11px" font-weight="700">Lua <tspan fill="#7d8590">13.5%</tspan></text></g><g transform="translate(0 48)"><rect width="12" height="12" fill="#178600" rx="2"/><text x="18" y="10" fill="#f0f6fc" font-size="11px" font-weight="700">C# <tspan fill="#7d8590">12.2%</tspan></text></g><g transform="translate(0 64)"><rect width="12" height="12" fill="#ec915c" rx="2"/><text x="18" y="10" fill="#f0f6fc" font-size="11px" font-weight="700">Zig <tspan fill="#7d8590">10.2%</tspan></text></g><path fill="#dea584" d="M168 0a38 38 0 0 1 29.76 61.63l-11.91-9.45A22.8 22.8 0 0 0 168 15.2Z"/><path fill="#3178c6" d="M197.76 61.63a38 38 0 0 1-59.14.47l11.75-9.64a22.8 22.8 0 0 0 35.48-.28Z"/><path fill="navy" d="M138.62 62.1a38 38 0 0 1-8.13-30.2l15.01 2.44a22.8 22.8 0 0 0 4.87 18.12Z"/><path fill="#178600" d="M130.49 31.9a38 38 0 0 1 14.78-24.35l9.09 12.18a22.8 22.8 0 0 0-8.86 14.61Z"/><path fill="#ec915c" d="M145.27 7.55A38 38 0 0 1 168 0v15.2a22.8 22.8 0 0 0-13.64 4.53Z"/></svg>