<svg xmlns="http://www.w3.org/2000/svg" width="350" height="255" viewBox="0 0 350 255"><style>text{font-family:-apple-system,BlinkMacSystemFont,Segoe UI,Helvetica,Arial,sans-serif}</style><rect width="350" height="255" fill="#fff" rx="4.5"/><text x="25" y="35" fill="#0366d6" font-size="16px" font-weight="600">mbwilding's Languages</text><g transform="translate(25 55)"><rect width="12" height="12" fill="#dea584" rx="2"/><text x="18" y="10" fill="#333" font-size="11px">Rust (36.4%)</text></g><g transform="translate(25 77)"><rect width="12" height="12" fill="#3178c6" rx="2"/><text x="18" y="10" fill="#333" font-size="11px">TypeScript (19.7%)</text></g><g transform="translate(25 99)"><rect width="12" height="12" fill="#178600" rx="2"/><text x="18" y="10" fill="#333" font-size="11px">C# (14.4%)</text></g><g transform="translate(25 121)"><rect width="12" height="12" fill="navy" rx="2"/><text x="18" y="10" fill="#333" font-size="11px">Lua (14.4%)</text></g><g transform="translate(25 143)"><rect width="12" height="12" fill="#ec915c" rx="2"/><text x="18" y="10" fill="#333" font-size="11px">Zig (11.7%)</text></g><g transform="translate(25 165)"><rect width="12" height="12" fill="#89e051" rx="2"/><text x="18" y="10" fill="#333" font-size="11px">Shell (1.1%)</text></g><g transform="translate(25 187)"><rect width="12" height="12" fill="#e34c26" rx="2"/><text x="18" y="10" fill="#333" font-size="11px">HTML (0.5%)</text></g><g transform="translate(25 209)"><rect width="12" height="12" fill="#f34b7d" rx="2"/><text x="18" y="10" fill="#333" font-size="11px">C++ (0.4%)</text></g><path fill="#dea584" d="M245 65a70 70 0 0 1 52.71 116.06l-21.09-18.42A42 42 0 0 0 245 93Z"/><path fill="#3178c6" d="M297.71 181.06a70 70 0 0 1-79.05 18.79l10.53-25.94a42 42 0 0 0 47.43-11.27Z"/><path fill="#178600" d="M218.66 199.85a70 70 0 0 1-40.99-45.7l26.93-7.66a42 42 0 0 0 24.59 27.42Z"/><path fill="navy" d="M177.67 154.15a70 70 0 0 1 10.68-60.27l22.66 16.45a42 42 0 0 0-6.41 36.16Z"/><path fill="#ec915c" d="M188.35 93.88a70 70 0 0 1 42.21-27.37l5.77 27.39a42 42 0 0 0-25.32 16.43Z"/><path fill="#89e051" d="M230.56 66.51a70 70 0 0 1 4.81-.84l3.85 27.73a42 42 0 0 0-2.89.5Z"/><path fill="#e34c26" d="M235.37 65.67a70 70 0 0 1 2.17-.27l2.98 27.84a42 42 0 0 0-1.3.16Z"/><path fill="#f34b7d" d="M237.54 65.4a70 70 0 0 1 1.55-.15l2.36 27.9a42 42 0 0 0-.93.09Z"/></svg>