<svg xmlns="http://www.w3.org/2000/svg" width="206" height="76" viewBox="0 0 206 76"><style>text{font-family:-apple-system,BlinkMacSystemFont,Segoe UI,Helvetica,Arial,sans-serif}</style><g><rect width="12" height="12" fill="#dea584" rx="2"/><text x="18" y="10" fill="#1f2328" font-size="11px" font-weight="700">Rust <tspan fill="#59636e">32.2%</tspan></text></g><g transform="translate(0 16)"><rect width="12" height="12" fill="#3178c6" rx="2"/><text x="18" y="10" fill="#1f2328" font-size="11px" font-weight="700">TypeScript <tspan fill="#59636e">25.3%</tspan></text></g><g transform="translate(0 32)"><rect width="12" height="12" fill="navy" rx="2"/><text x="18" y="10" fill="#1f2328" font-size="11px" font-weight="700">Lua <tspan fill="#59636e">22.5%</tspan></text></g><g transform="translate(0 48)"><rect width="12" height="12" fill="#178600" rx="2"/><text x="18" y="10" fill="#1f2328" font-size="11px" font-weight="700">C# <tspan fill="#59636e">10.9%</tspan></text></g><g transform="translate(0 64)"><rect width="12" height="12" fill="#ec915c" rx="2"/><text x="18" y="10" fill="#1f2328" font-size="11px" font-weight="700">Zig <tspan fill="#59636e">9.1%</tspan></text></g><path fill="#dea584" d="M168 0a38 38 0 0 1 34.15 54.66L188.49 48A22.8 22.8 0 0 0 168 15.2Z"/><path fill="#3178c6" d="M202.15 54.66a38 38 0 0 1-51.44 17.18l6.91-13.54A22.8 22.8 0 0 0 188.49 48Z"/><path fill="navy" d="M150.71 71.84a38 38 0 0 1-18.84-45.6l14.45 4.7a22.8 22.8 0 0 0 11.3 27.36Z"/><path fill="#178600" d="M131.87 26.24a38 38 0 0 1 15.58-20.2l8.22 12.78a22.8 22.8 0 0 0-9.35 12.12Z"/><path fill="#ec915c" d="M147.45 6.04A38 38 0 0 1 168 0v15.2a22.8 22.8 0 0 0-12.33 3.62Z"/></svg>