<svg xmlns="http://www.w3.org/2000/svg" width="206" height="76" viewBox="0 0 206 76"><style>text{font-family:-apple-system,BlinkMacSystemFont,Segoe UI,Helvetica,Arial,sans-serif}</style><g><rect width="12" height="12" fill="#dea584" rx="2"/><text x="18" y="10" fill="#f0f6fc" font-size="11px" font-weight="700">Rust <tspan fill="#7d8590">32.1%</tspan></text></g><g transform="translate(0 16)"><rect width="12" height="12" fill="#3178c6" rx="2"/><text x="18" y="10" fill="#f0f6fc" font-size="11px" font-weight="700">TypeScript <tspan fill="#7d8590">25.2%</tspan></text></g><g transform="translate(0 32)"><rect width="12" height="12" fill="navy" rx="2"/><text x="18" y="10" fill="#f0f6fc" font-size="11px" font-weight="700">Lua <tspan fill="#7d8590">22.4%</tspan></text></g><g transform="translate(0 48)"><rect width="12" height="12" fill="#178600" rx="2"/><text x="18" y="10" fill="#f0f6fc" font-size="11px" font-weight="700">C# <tspan fill="#7d8590">10.8%</tspan></text></g><g transform="translate(0 64)"><rect width="12" height="12" fill="#7e7eff" rx="2"/><text x="18" y="10" fill="#f0f6fc" font-size="11px" font-weight="700">Nix <tspan fill="#7d8590">9.6%</tspan></text></g><path fill="#dea584" d="M168 0a38 38 0 0 1 34.33 54.3l-13.73-6.52A22.8 22.8 0 0 0 168 15.2Z"/><path fill="#3178c6" d="M202.33 54.3a38 38 0 0 1-50.97 17.86l6.66-13.66a22.8 22.8 0 0 0 30.58-10.72Z"/><path fill="navy" d="M151.36 72.16a38 38 0 0 1-19.78-44.99l14.57 4.33a22.8 22.8 0 0 0 11.87 27Z"/><path fill="#178600" d="M131.58 27.17a38 38 0 0 1 14.95-20.52l8.59 12.54a22.8 22.8 0 0 0-8.97 12.31Z"/><path fill="#7e7eff" d="M146.53 6.65A38 38 0 0 1 168 0v15.2a22.8 22.8 0 0 0-12.88 3.99Z"/></svg>