<svg xmlns="http://www.w3.org/2000/svg" width="350" height="255" viewBox="0 0 350 255">
  <style>
    text { font-family: -apple-system, BlinkMacSystemFont, 'Segoe UI', Helvetica, Arial, sans-serif; }
  </style>
  <rect width="350" height="255" rx="4.5" fill="#0d1117"/>
  <text x="25" y="35" fill="#58a6ff" font-size="16" font-weight="600">mbwilding's Languages</text>
  <g transform="translate(25, 55)">
                <rect width="12" height="12" rx="2" fill="#dea584"/>
                <text x="18" y="10" fill="#c9d1d9" font-size="11">Rust (36.4%)</text>
            </g><g transform="translate(25, 77)">
                <rect width="12" height="12" rx="2" fill="#3178c6"/>
                <text x="18" y="10" fill="#c9d1d9" font-size="11">TypeScript (19.7%)</text>
            </g><g transform="translate(25, 99)">
                <rect width="12" height="12" rx="2" fill="#178600"/>
                <text x="18" y="10" fill="#c9d1d9" font-size="11">C# (14.5%)</text>
            </g><g transform="translate(25, 121)">
                <rect width="12" height="12" rx="2" fill="#000080"/>
                <text x="18" y="10" fill="#c9d1d9" font-size="11">Lua (14.4%)</text>
            </g><g transform="translate(25, 143)">
                <rect width="12" height="12" rx="2" fill="#ec915c"/>
                <text x="18" y="10" fill="#c9d1d9" font-size="11">Zig (11.7%)</text>
            </g><g transform="translate(25, 165)">
                <rect width="12" height="12" rx="2" fill="#89e051"/>
                <text x="18" y="10" fill="#c9d1d9" font-size="11">Shell (1.1%)</text>
            </g><g transform="translate(25, 187)">
                <rect width="12" height="12" rx="2" fill="#e34c26"/>
                <text x="18" y="10" fill="#c9d1d9" font-size="11">HTML (0.5%)</text>
            </g><g transform="translate(25, 209)">
                <rect width="12" height="12" rx="2" fill="#f34b7d"/>
                <text x="18" y="10" fill="#c9d1d9" font-size="11">C++ (0.4%)</text>
            </g>
  <g transform="translate(190, 50)">
    <path d="M 85.00 15.00 A 70 70 0 0 1 137.73 131.03 L 116.64 112.62 A 42 42 0 0 0 85.00 43.00 Z" fill="#dea584"/><path d="M 137.73 131.03 A 70 70 0 0 1 58.68 149.86 L 69.21 123.92 A 42 42 0 0 0 116.64 112.62 Z" fill="#3178c6"/><path d="M 58.68 149.86 A 70 70 0 0 1 17.68 104.17 L 44.61 96.50 A 42 42 0 0 0 69.21 123.92 Z" fill="#178600"/><path d="M 17.68 104.17 A 70 70 0 0 1 28.35 43.88 L 51.01 60.33 A 42 42 0 0 0 44.61 96.50 Z" fill="#000080"/><path d="M 28.35 43.88 A 70 70 0 0 1 70.56 16.51 L 76.33 43.90 A 42 42 0 0 0 51.01 60.33 Z" fill="#ec915c"/><path d="M 70.56 16.51 A 70 70 0 0 1 75.37 15.67 L 79.22 43.40 A 42 42 0 0 0 76.33 43.90 Z" fill="#89e051"/><path d="M 75.37 15.67 A 70 70 0 0 1 77.54 15.40 L 80.52 43.24 A 42 42 0 0 0 79.22 43.40 Z" fill="#e34c26"/><path d="M 77.54 15.40 A 70 70 0 0 1 79.09 15.25 L 81.45 43.15 A 42 42 0 0 0 80.52 43.24 Z" fill="#f34b7d"/>
  </g>
</svg>