<svg xmlns="http://www.w3.org/2000/svg" width="290" height="140" viewBox="0 0 290 140"><style>text{font-family:-apple-system,BlinkMacSystemFont,Segoe UI,Helvetica,Arial,sans-serif}</style><g transform="translate(0 8)"><rect width="12" height="12" fill="#dea584" rx="2"/><text x="18" y="10" fill="#c9d1d9" font-size="11px">Rust (36.5%)</text></g><g transform="translate(0 24)"><rect width="12" height="12" fill="#3178c6" rx="2"/><text x="18" y="10" fill="#c9d1d9" font-size="11px">TypeScript (19.7%)</text></g><g transform="translate(0 40)"><rect width="12" height="12" fill="#178600" rx="2"/><text x="18" y="10" fill="#c9d1d9" font-size="11px">C# (14.4%)</text></g><g transform="translate(0 56)"><rect width="12" height="12" fill="navy" rx="2"/><text x="18" y="10" fill="#c9d1d9" font-size="11px">Lua (14.4%)</text></g><g transform="translate(0 72)"><rect width="12" height="12" fill="#ec915c" rx="2"/><text x="18" y="10" fill="#c9d1d9" font-size="11px">Zig (11.7%)</text></g><g transform="translate(0 88)"><rect width="12" height="12" fill="#89e051" rx="2"/><text x="18" y="10" fill="#c9d1d9" font-size="11px">Shell (1.1%)</text></g><g transform="translate(0 104)"><rect width="12" height="12" fill="#e34c26" rx="2"/><text x="18" y="10" fill="#c9d1d9" font-size="11px">HTML (0.5%)</text></g><g transform="translate(0 120)"><rect width="12" height="12" fill="#f34b7d" rx="2"/><text x="18" y="10" fill="#c9d1d9" font-size="11px">C++ (0.4%)</text></g><path fill="#dea584" d="M220 0a70 70 0 0 1 52.46 116.34l-20.98-18.53A42 42 0 0 0 220 28Z"/><path fill="#3178c6" d="M272.46 116.34a70 70 0 0 1-79.04 18.42l10.63-25.91a42 42 0 0 0 47.43-11.04Z"/><path fill="#178600" d="M193.42 134.76a70 70 0 0 1-40.8-45.77l26.95-7.6a42 42 0 0 0 24.48 27.46Z"/><path fill="navy" d="M152.62 88.99a70 70 0 0 1 10.78-60.18l22.64 16.47a42 42 0 0 0-6.47 36.11Z"/><path fill="#ec915c" d="M163.4 28.81A70 70 0 0 1 205.58 1.5l5.77 27.4a42 42 0 0 0-25.31 16.38Z"/><path fill="#89e051" d="M205.58 1.5a70 70 0 0 1 4.8-.84l3.85 27.74a42 42 0 0 0-2.88.5Z"/><path fill="#e34c26" d="M210.38.66a70 70 0 0 1 2.17-.26l2.98 27.84a42 42 0 0 0-1.3.16Z"/><path fill="#f34b7d" d="M212.55.4a70 70 0 0 1 1.54-.15l2.37 27.9a42 42 0 0 0-.93.09Z"/></svg>