<svg xmlns="http://www.w3.org/2000/svg" width="206" height="76" viewBox="0 0 206 76"><style>text{font-family:-apple-system,BlinkMacSystemFont,Segoe UI,Helvetica,Arial,sans-serif}</style><g><rect width="12" height="12" fill="#dea584" rx="2"/><text x="18" y="10" fill="#f0f6fc" font-size="11px" font-weight="700">Rust <tspan fill="#7d8590">39.4%</tspan></text></g><g transform="translate(0 16)"><rect width="12" height="12" fill="#3178c6" rx="2"/><text x="18" y="10" fill="#f0f6fc" font-size="11px" font-weight="700">TypeScript <tspan fill="#7d8590">19.6%</tspan></text></g><g transform="translate(0 32)"><rect width="12" height="12" fill="navy" rx="2"/><text x="18" y="10" fill="#f0f6fc" font-size="11px" font-weight="700">Lua <tspan fill="#7d8590">15.0%</tspan></text></g><g transform="translate(0 48)"><rect width="12" height="12" fill="#178600" rx="2"/><text x="18" y="10" fill="#f0f6fc" font-size="11px" font-weight="700">C# <tspan fill="#7d8590">14.4%</tspan></text></g><g transform="translate(0 64)"><rect width="12" height="12" fill="#ec915c" rx="2"/><text x="18" y="10" fill="#f0f6fc" font-size="11px" font-weight="700">Zig <tspan fill="#7d8590">11.6%</tspan></text></g><path fill="#dea584" d="M168 0a38 38 0 0 1 23.44 67.91l-9.37-11.97A22.8 22.8 0 0 0 168 15.2Z"/><path fill="#3178c6" d="M191.44 67.91a38 38 0 0 1-43.85 2.14l8.16-12.82a22.8 22.8 0 0 0 26.32-1.29Z"/><path fill="navy" d="M147.59 70.05a38 38 0 0 1-17.51-29.64l15.17-.97a22.8 22.8 0 0 0 10.5 17.79Z"/><path fill="#178600" d="M130.08 40.41a38 38 0 0 1 12.55-30.7l10.15 11.32a22.8 22.8 0 0 0-7.53 18.41Z"/><path fill="#ec915c" d="M142.63 9.71A38 38 0 0 1 168 0v15.2a22.8 22.8 0 0 0-15.22 5.83Z"/></svg>