<svg xmlns="http://www.w3.org/2000/svg" width="290" height="176" viewBox="0 0 290 176"><style>text{font-family:-apple-system,BlinkMacSystemFont,Segoe UI,Helvetica,Arial,sans-serif}</style><g><rect width="12" height="12" fill="#dea584" rx="2"/><text x="18" y="10" fill="#333" font-size="11px">Rust (36.5%)</text></g><g transform="translate(0 22)"><rect width="12" height="12" fill="#3178c6" rx="2"/><text x="18" y="10" fill="#333" font-size="11px">TypeScript (19.7%)</text></g><g transform="translate(0 44)"><rect width="12" height="12" fill="#178600" rx="2"/><text x="18" y="10" fill="#333" font-size="11px">C# (14.4%)</text></g><g transform="translate(0 66)"><rect width="12" height="12" fill="navy" rx="2"/><text x="18" y="10" fill="#333" font-size="11px">Lua (14.4%)</text></g><g transform="translate(0 88)"><rect width="12" height="12" fill="#ec915c" rx="2"/><text x="18" y="10" fill="#333" font-size="11px">Zig (11.7%)</text></g><g transform="translate(0 110)"><rect width="12" height="12" fill="#89e051" rx="2"/><text x="18" y="10" fill="#333" font-size="11px">Shell (1.1%)</text></g><g transform="translate(0 132)"><rect width="12" height="12" fill="#e34c26" rx="2"/><text x="18" y="10" fill="#333" font-size="11px">HTML (0.5%)</text></g><g transform="translate(0 154)"><rect width="12" height="12" fill="#f34b7d" rx="2"/><text x="18" y="10" fill="#333" font-size="11px">C++ (0.4%)</text></g><path fill="#dea584" d="M220 18a70 70 0 0 1 52.4 116.41l-20.96-18.56A42 42 0 0 0 220 46Z"/><path fill="#3178c6" d="M272.4 134.41a70 70 0 0 1-79.04 18.32l10.66-25.89a42 42 0 0 0 47.42-10.99Z"/><path fill="#178600" d="M193.36 152.73a70 70 0 0 1-40.75-45.78l26.96-7.58a42 42 0 0 0 24.45 27.47Z"/><path fill="navy" d="M152.61 106.95a70 70 0 0 1 10.81-60.16l22.63 16.48a42 42 0 0 0-6.48 36.1Z"/><path fill="#ec915c" d="M163.42 46.79a70 70 0 0 1 42.16-27.29l5.77 27.4a42 42 0 0 0-25.3 16.37Z"/><path fill="#89e051" d="M205.58 19.5a70 70 0 0 1 4.8-.84l3.85 27.74a42 42 0 0 0-2.88.5Z"/><path fill="#e34c26" d="M210.38 18.66a70 70 0 0 1 2.17-.26l2.98 27.84a42 42 0 0 0-1.3.16Z"/><path fill="#f34b7d" d="M212.55 18.4a70 70 0 0 1 1.55-.15l2.36 27.9a42 42 0 0 0-.93.09Z"/></svg>