<svg xmlns="http://www.w3.org/2000/svg" width="206" height="76" viewBox="0 0 206 76"><style>text{font-family:-apple-system,BlinkMacSystemFont,Segoe UI,Helvetica,Arial,sans-serif}</style><g><rect width="12" height="12" fill="#dea584" rx="2"/><text x="18" y="10" fill="#f0f6fc" font-size="11px" font-weight="700">Rust <tspan fill="#7d8590">38.3%</tspan></text></g><g transform="translate(0 16)"><rect width="12" height="12" fill="#3178c6" rx="2"/><text x="18" y="10" fill="#f0f6fc" font-size="11px" font-weight="700">TypeScript <tspan fill="#7d8590">18.5%</tspan></text></g><g transform="translate(0 32)"><rect width="12" height="12" fill="#44a51c" rx="2"/><text x="18" y="10" fill="#f0f6fc" font-size="11px" font-weight="700">QML <tspan fill="#7d8590">15.8%</tspan></text></g><g transform="translate(0 48)"><rect width="12" height="12" fill="navy" rx="2"/><text x="18" y="10" fill="#f0f6fc" font-size="11px" font-weight="700">Lua <tspan fill="#7d8590">13.9%</tspan></text></g><g transform="translate(0 64)"><rect width="12" height="12" fill="#178600" rx="2"/><text x="18" y="10" fill="#f0f6fc" font-size="11px" font-weight="700">C# <tspan fill="#7d8590">13.5%</tspan></text></g><path fill="#dea584" d="M168 0a38 38 0 0 1 25.51 66.16l-10.2-11.26A22.8 22.8 0 0 0 168 15.2Z"/><path fill="#3178c6" d="M193.51 66.16a38 38 0 0 1-41.15 6.47l6.26-13.85a22.8 22.8 0 0 0 24.69-3.88Z"/><path fill="#44a51c" d="M152.36 72.63a38 38 0 0 1-21.93-28.9l15.03-2.29a22.8 22.8 0 0 0 13.16 17.34Z"/><path fill="navy" d="M130.43 43.73a38 38 0 0 1 9.01-30.8l11.42 10.03a22.8 22.8 0 0 0-5.4 18.48Z"/><path fill="#178600" d="M139.44 12.93A38 38 0 0 1 168 0v15.2a22.8 22.8 0 0 0-17.14 7.76Z"/></svg>