<svg xmlns="http://www.w3.org/2000/svg" width="206" height="76" viewBox="0 0 206 76"><style>text{font-family:-apple-system,BlinkMacSystemFont,Segoe UI,Helvetica,Arial,sans-serif}</style><g><rect width="12" height="12" fill="#dea584" rx="2"/><text x="18" y="10" fill="#1f2328" font-size="11px" font-weight="700">Rust <tspan fill="#59636e">39.0%</tspan></text></g><g transform="translate(0 16)"><rect width="12" height="12" fill="#3178c6" rx="2"/><text x="18" y="10" fill="#1f2328" font-size="11px" font-weight="700">TypeScript <tspan fill="#59636e">19.8%</tspan></text></g><g transform="translate(0 32)"><rect width="12" height="12" fill="navy" rx="2"/><text x="18" y="10" fill="#1f2328" font-size="11px" font-weight="700">Lua <tspan fill="#59636e">15.0%</tspan></text></g><g transform="translate(0 48)"><rect width="12" height="12" fill="#178600" rx="2"/><text x="18" y="10" fill="#1f2328" font-size="11px" font-weight="700">C# <tspan fill="#59636e">14.5%</tspan></text></g><g transform="translate(0 64)"><rect width="12" height="12" fill="#ec915c" rx="2"/><text x="18" y="10" fill="#1f2328" font-size="11px" font-weight="700">Zig <tspan fill="#59636e">11.7%</tspan></text></g><path fill="#dea584" d="M168 0a38 38 0 0 1 24.22 67.28l-9.69-11.71A22.8 22.8 0 0 0 168 15.2Z"/><path fill="#3178c6" d="M192.22 67.28a38 38 0 0 1-44.13 3.08l7.96-12.94a22.8 22.8 0 0 0 26.48-1.85Z"/><path fill="navy" d="M148.09 70.36a38 38 0 0 1-17.98-29.41l15.16-1.18a22.8 22.8 0 0 0 10.78 17.65Z"/><path fill="#178600" d="M130.11 40.95a38 38 0 0 1 12.34-31.07l10.22 11.25a22.8 22.8 0 0 0-7.4 18.64Z"/><path fill="#ec915c" d="M142.45 9.88A38 38 0 0 1 168 0v15.2a22.8 22.8 0 0 0-15.33 5.93Z"/></svg>