<svg xmlns="http://www.w3.org/2000/svg" width="350" height="246" viewBox="0 0 350 246">
  <style>
    text { font-family: -apple-system, BlinkMacSystemFont, 'Segoe UI', Helvetica, Arial, sans-serif; }
  </style>
  <rect width="350" height="246" rx="4.5" fill="#ffffff"/>
  <text x="25" y="35" fill="#0366d6" font-size="16" font-weight="600">mbwilding's Languages</text>
  <g transform="translate(25, 55)">
                <rect width="12" height="12" rx="2" fill="#dea584"/>
                <text x="18" y="10" fill="#333333" font-size="11">Rust (36.4%)</text>
            </g><g transform="translate(25, 77)">
                <rect width="12" height="12" rx="2" fill="#3178c6"/>
                <text x="18" y="10" fill="#333333" font-size="11">TypeScript (19.7%)</text>
            </g><g transform="translate(25, 99)">
                <rect width="12" height="12" rx="2" fill="#178600"/>
                <text x="18" y="10" fill="#333333" font-size="11">C# (14.5%)</text>
            </g><g transform="translate(25, 121)">
                <rect width="12" height="12" rx="2" fill="#000080"/>
                <text x="18" y="10" fill="#333333" font-size="11">Lua (14.4%)</text>
            </g><g transform="translate(25, 143)">
                <rect width="12" height="12" rx="2" fill="#ec915c"/>
                <text x="18" y="10" fill="#333333" font-size="11">Zig (11.7%)</text>
            </g><g transform="translate(25, 165)">
                <rect width="12" height="12" rx="2" fill="#89e051"/>
                <text x="18" y="10" fill="#333333" font-size="11">Shell (1.1%)</text>
            </g><g transform="translate(25, 187)">
                <rect width="12" height="12" rx="2" fill="#e34c26"/>
                <text x="18" y="10" fill="#333333" font-size="11">HTML (0.5%)</text>
            </g><g transform="translate(25, 209)">
                <rect width="12" height="12" rx="2" fill="#f34b7d"/>
                <text x="18" y="10" fill="#333333" font-size="11">C++ (0.4%)</text>
            </g>
  <g transform="translate(190, 50)">
    <path d="M 80.00 25.00 A 55 55 0 0 1 121.52 116.07 L 104.16 100.99 A 32 32 0 0 0 80.00 48.00 Z" fill="#dea584"/><path d="M 121.52 116.07 A 55 55 0 0 1 59.40 131.00 L 68.02 109.67 A 32 32 0 0 0 104.16 100.99 Z" fill="#3178c6"/><path d="M 59.40 131.00 A 55 55 0 0 1 27.12 95.12 L 49.23 88.80 A 32 32 0 0 0 68.02 109.67 Z" fill="#178600"/><path d="M 27.12 95.12 A 55 55 0 0 1 35.47 47.72 L 54.09 61.22 A 32 32 0 0 0 49.23 88.80 Z" fill="#000080"/><path d="M 35.47 47.72 A 55 55 0 0 1 68.64 26.18 L 73.39 48.69 A 32 32 0 0 0 54.09 61.22 Z" fill="#ec915c"/><path d="M 68.64 26.18 A 55 55 0 0 1 72.43 25.52 L 75.59 48.30 A 32 32 0 0 0 73.39 48.69 Z" fill="#89e051"/><path d="M 72.43 25.52 A 55 55 0 0 1 74.13 25.31 L 76.59 48.18 A 32 32 0 0 0 75.59 48.30 Z" fill="#e34c26"/><path d="M 74.13 25.31 A 55 55 0 0 1 75.35 25.20 L 77.29 48.11 A 32 32 0 0 0 76.59 48.18 Z" fill="#f34b7d"/>
  </g>
</svg>