<svg xmlns="http://www.w3.org/2000/svg" width="206" height="76" viewBox="0 0 206 76"><style>text{font-family:-apple-system,BlinkMacSystemFont,Segoe UI,Helvetica,Arial,sans-serif}</style><g><rect width="12" height="12" fill="#dea584" rx="2"/><text x="18" y="10" fill="#1f2328" font-size="11px" font-weight="700">Rust <tspan fill="#59636e">38.0%</tspan></text></g><g transform="translate(0 16)"><rect width="12" height="12" fill="#3178c6" rx="2"/><text x="18" y="10" fill="#1f2328" font-size="11px" font-weight="700">TypeScript <tspan fill="#59636e">20.3%</tspan></text></g><g transform="translate(0 32)"><rect width="12" height="12" fill="#178600" rx="2"/><text x="18" y="10" fill="#1f2328" font-size="11px" font-weight="700">C# <tspan fill="#59636e">14.9%</tspan></text></g><g transform="translate(0 48)"><rect width="12" height="12" fill="navy" rx="2"/><text x="18" y="10" fill="#1f2328" font-size="11px" font-weight="700">Lua <tspan fill="#59636e">14.8%</tspan></text></g><g transform="translate(0 64)"><rect width="12" height="12" fill="#ec915c" rx="2"/><text x="18" y="10" fill="#1f2328" font-size="11px" font-weight="700">Zig <tspan fill="#59636e">12.0%</tspan></text></g><path fill="#dea584" d="M168 0a38 38 0 0 1 26.09 65.62l-10.43-11.05A22.8 22.8 0 0 0 168 15.2Z"/><path fill="#3178c6" d="M194.09 65.62a38 38 0 0 1-44.91 5.39l7.53-13.2a22.8 22.8 0 0 0 26.95-3.24Z"/><path fill="#178600" d="M149.18 71.01a38 38 0 0 1-18.92-28.54l15.1-1.79a22.8 22.8 0 0 0 11.35 17.13Z"/><path fill="navy" d="M130.26 42.47a38 38 0 0 1 11.65-32.1l10.44 11.05a22.8 22.8 0 0 0-6.99 19.26Z"/><path fill="#ec915c" d="M141.91 10.37A38 38 0 0 1 168 0v15.2a22.8 22.8 0 0 0-15.65 6.22Z"/></svg>