<svg xmlns="http://www.w3.org/2000/svg" width="206" height="76" viewBox="0 0 206 76"><style>text{font-family:-apple-system,BlinkMacSystemFont,Segoe UI,Helvetica,Arial,sans-serif}</style><g><rect width="12" height="12" fill="#dea584" rx="2"/><text x="18" y="10" fill="#f0f6fc" font-size="11px" font-weight="700">Rust <tspan fill="#7d8590">32.2%</tspan></text></g><g transform="translate(0 16)"><rect width="12" height="12" fill="#3178c6" rx="2"/><text x="18" y="10" fill="#f0f6fc" font-size="11px" font-weight="700">TypeScript <tspan fill="#7d8590">25.3%</tspan></text></g><g transform="translate(0 32)"><rect width="12" height="12" fill="navy" rx="2"/><text x="18" y="10" fill="#f0f6fc" font-size="11px" font-weight="700">Lua <tspan fill="#7d8590">22.5%</tspan></text></g><g transform="translate(0 48)"><rect width="12" height="12" fill="#178600" rx="2"/><text x="18" y="10" fill="#f0f6fc" font-size="11px" font-weight="700">C# <tspan fill="#7d8590">10.9%</tspan></text></g><g transform="translate(0 64)"><rect width="12" height="12" fill="#7e7eff" rx="2"/><text x="18" y="10" fill="#f0f6fc" font-size="11px" font-weight="700">Nix <tspan fill="#7d8590">9.2%</tspan></text></g><path fill="#dea584" d="M168 0a38 38 0 0 1 34.18 54.6l-13.67-6.64A22.8 22.8 0 0 0 168 15.2Z"/><path fill="#3178c6" d="M202.18 54.6a38 38 0 0 1-51.36 17.3l6.87-13.56a22.8 22.8 0 0 0 30.82-10.38Z"/><path fill="navy" d="M150.82 71.9a38 38 0 0 1-19-45.53l14.47 4.65a22.8 22.8 0 0 0 11.4 27.32Z"/><path fill="#178600" d="M131.82 26.37a38 38 0 0 1 15.5-20.25l8.27 12.75a22.8 22.8 0 0 0-9.3 12.15Z"/><path fill="#7e7eff" d="M147.32 6.12A38 38 0 0 1 168 0v15.2a22.8 22.8 0 0 0-12.41 3.67Z"/></svg>