<svg xmlns="http://www.w3.org/2000/svg" width="206" height="76" viewBox="0 0 206 76"><style>text{font-family:-apple-system,BlinkMacSystemFont,Segoe UI,Helvetica,Arial,sans-serif}</style><g><rect width="12" height="12" fill="#dea584" rx="2"/><text x="18" y="10" fill="#f0f6fc" font-size="11px" font-weight="700">Rust <tspan fill="#7d8590">32.8%</tspan></text></g><g transform="translate(0 16)"><rect width="12" height="12" fill="#3178c6" rx="2"/><text x="18" y="10" fill="#f0f6fc" font-size="11px" font-weight="700">TypeScript <tspan fill="#7d8590">25.7%</tspan></text></g><g transform="translate(0 32)"><rect width="12" height="12" fill="navy" rx="2"/><text x="18" y="10" fill="#f0f6fc" font-size="11px" font-weight="700">Lua <tspan fill="#7d8590">21.1%</tspan></text></g><g transform="translate(0 48)"><rect width="12" height="12" fill="#178600" rx="2"/><text x="18" y="10" fill="#f0f6fc" font-size="11px" font-weight="700">C# <tspan fill="#7d8590">11.1%</tspan></text></g><g transform="translate(0 64)"><rect width="12" height="12" fill="#ec915c" rx="2"/><text x="18" y="10" fill="#f0f6fc" font-size="11px" font-weight="700">Zig <tspan fill="#7d8590">9.3%</tspan></text></g><path fill="#dea584" d="M168 0a38 38 0 0 1 33.54 55.85l-13.41-7.14A22.8 22.8 0 0 0 168 15.2Z"/><path fill="#3178c6" d="M201.54 55.85a38 38 0 0 1-52.92 14.84l7.75-13.08a22.8 22.8 0 0 0 31.76-8.9Z"/><path fill="navy" d="M148.62 70.69a38 38 0 0 1-17-43.66l14.55 4.39a22.8 22.8 0 0 0 10.2 26.19Z"/><path fill="#178600" d="M131.62 27.03a38 38 0 0 1 15.51-20.79l8.35 12.71a22.8 22.8 0 0 0-9.31 12.47Z"/><path fill="#ec915c" d="M147.13 6.24A38 38 0 0 1 168 0v15.2a22.8 22.8 0 0 0-12.52 3.75Z"/></svg>