<svg xmlns="http://www.w3.org/2000/svg" width="206" height="76" viewBox="0 0 206 76"><style>text{font-family:-apple-system,BlinkMacSystemFont,Segoe UI,Helvetica,Arial,sans-serif}</style><g><rect width="12" height="12" fill="#dea584" rx="2"/><text x="18" y="10" fill="#1f2328" font-size="11px" font-weight="700">Rust <tspan fill="#59636e">40.3%</tspan></text></g><g transform="translate(0 16)"><rect width="12" height="12" fill="#3178c6" rx="2"/><text x="18" y="10" fill="#1f2328" font-size="11px" font-weight="700">TypeScript <tspan fill="#59636e">19.4%</tspan></text></g><g transform="translate(0 32)"><rect width="12" height="12" fill="navy" rx="2"/><text x="18" y="10" fill="#1f2328" font-size="11px" font-weight="700">Lua <tspan fill="#59636e">14.9%</tspan></text></g><g transform="translate(0 48)"><rect width="12" height="12" fill="#178600" rx="2"/><text x="18" y="10" fill="#1f2328" font-size="11px" font-weight="700">C# <tspan fill="#59636e">13.8%</tspan></text></g><g transform="translate(0 64)"><rect width="12" height="12" fill="#ec915c" rx="2"/><text x="18" y="10" fill="#1f2328" font-size="11px" font-weight="700">Zig <tspan fill="#59636e">11.5%</tspan></text></g><path fill="#dea584" d="M168 0a38 38 0 0 1 21.71 69.19l-8.68-12.48A22.8 22.8 0 0 0 168 15.2Z"/><path fill="#3178c6" d="M189.71 69.19a38 38 0 0 1-43.56-.1l8.74-12.43a22.8 22.8 0 0 0 26.14.05Z"/><path fill="navy" d="M146.15 69.09a38 38 0 0 1-16.14-30.26l15.2-.33a22.8 22.8 0 0 0 9.68 18.16Z"/><path fill="#178600" d="M130.01 38.83a38 38 0 0 1 12.8-29.28l10.08 11.38a22.8 22.8 0 0 0-7.68 17.57Z"/><path fill="#ec915c" d="M142.81 9.55A38 38 0 0 1 168 0v15.2a22.8 22.8 0 0 0-15.11 5.73Z"/></svg>