<svg xmlns="http://www.w3.org/2000/svg" width="206" height="76" viewBox="0 0 206 76"><style>text{font-family:-apple-system,BlinkMacSystemFont,Segoe UI,Helvetica,Arial,sans-serif}</style><g><rect width="12" height="12" fill="#dea584" rx="2"/><text x="18" y="10" fill="#1f2328" font-size="11px" font-weight="700">Rust <tspan fill="#59636e">29.8%</tspan></text></g><g transform="translate(0 16)"><rect width="12" height="12" fill="#3178c6" rx="2"/><text x="18" y="10" fill="#1f2328" font-size="11px" font-weight="700">TypeScript <tspan fill="#59636e">26.1%</tspan></text></g><g transform="translate(0 32)"><rect width="12" height="12" fill="navy" rx="2"/><text x="18" y="10" fill="#1f2328" font-size="11px" font-weight="700">Lua <tspan fill="#59636e">22.8%</tspan></text></g><g transform="translate(0 48)"><rect width="12" height="12" fill="#7355dd" rx="2"/><text x="18" y="10" fill="#1f2328" font-size="11px" font-weight="700">C# <tspan fill="#59636e">11.1%</tspan></text></g><g transform="translate(0 64)"><rect width="12" height="12" fill="#7e7eff" rx="2"/><text x="18" y="10" fill="#1f2328" font-size="11px" font-weight="700">Nix <tspan fill="#59636e">10.2%</tspan></text></g><path fill="#dea584" d="M168 0a38 38 0 0 1 36.27 49.32l-14.51-4.53A22.8 22.8 0 0 0 168 15.2Z"/><path fill="#3178c6" d="M204.27 49.32a38 38 0 0 1-50.08 24.08l5.52-14.16a22.8 22.8 0 0 0 30.05-14.45Z"/><path fill="navy" d="M154.19 73.4a38 38 0 0 1-23.14-44.29l14.78 3.56a22.8 22.8 0 0 0 13.88 26.57Z"/><path fill="#7355dd" d="M131.05 29.11a38 38 0 0 1 14.26-21.59l9.08 12.19a22.8 22.8 0 0 0-8.56 12.96Z"/><path fill="#7e7eff" d="M145.31 7.52A38 38 0 0 1 168 0v15.2a22.8 22.8 0 0 0-13.61 4.51Z"/></svg>