<svg xmlns="http://www.w3.org/2000/svg" width="206" height="76" viewBox="0 0 206 76"><style>text{font-family:-apple-system,BlinkMacSystemFont,Segoe UI,Helvetica,Arial,sans-serif}</style><g><rect width="12" height="12" fill="#dea584" rx="2"/><text x="18" y="10" fill="#f0f6fc" font-size="11px" font-weight="700">Rust <tspan fill="#7d8590">32.2%</tspan></text></g><g transform="translate(0 16)"><rect width="12" height="12" fill="#3178c6" rx="2"/><text x="18" y="10" fill="#f0f6fc" font-size="11px" font-weight="700">TypeScript <tspan fill="#7d8590">25.3%</tspan></text></g><g transform="translate(0 32)"><rect width="12" height="12" fill="navy" rx="2"/><text x="18" y="10" fill="#f0f6fc" font-size="11px" font-weight="700">Lua <tspan fill="#7d8590">22.5%</tspan></text></g><g transform="translate(0 48)"><rect width="12" height="12" fill="#178600" rx="2"/><text x="18" y="10" fill="#f0f6fc" font-size="11px" font-weight="700">C# <tspan fill="#7d8590">10.9%</tspan></text></g><g transform="translate(0 64)"><rect width="12" height="12" fill="#7e7eff" rx="2"/><text x="18" y="10" fill="#f0f6fc" font-size="11px" font-weight="700">Nix <tspan fill="#7d8590">9.2%</tspan></text></g><path fill="#dea584" d="M168 0a38 38 0 0 1 34.19 54.58l-13.68-6.63A22.8 22.8 0 0 0 168 15.2Z"/><path fill="#3178c6" d="M202.19 54.58a38 38 0 0 1-51.34 17.33l6.86-13.56a22.8 22.8 0 0 0 30.8-10.4Z"/><path fill="navy" d="M150.85 71.91a38 38 0 0 1-19.04-45.5l14.48 4.63a22.8 22.8 0 0 0 11.42 27.31Z"/><path fill="#178600" d="M131.81 26.41a38 38 0 0 1 15.46-20.26l8.29 12.74a22.8 22.8 0 0 0-9.27 12.15Z"/><path fill="#7e7eff" d="M147.27 6.15A38 38 0 0 1 168 0v15.2a22.8 22.8 0 0 0-12.44 3.69Z"/></svg>