<svg xmlns="http://www.w3.org/2000/svg" width="206" height="76" viewBox="0 0 206 76"><style>text{font-family:-apple-system,BlinkMacSystemFont,Segoe UI,Helvetica,Arial,sans-serif}</style><g><rect width="12" height="12" fill="#dea584" rx="2"/><text x="18" y="10" fill="#1f2328" font-size="11px" font-weight="700">Rust <tspan fill="#59636e">38.2%</tspan></text></g><g transform="translate(0 16)"><rect width="12" height="12" fill="#3178c6" rx="2"/><text x="18" y="10" fill="#1f2328" font-size="11px" font-weight="700">TypeScript <tspan fill="#59636e">18.4%</tspan></text></g><g transform="translate(0 32)"><rect width="12" height="12" fill="#44a51c" rx="2"/><text x="18" y="10" fill="#1f2328" font-size="11px" font-weight="700">QML <tspan fill="#59636e">15.8%</tspan></text></g><g transform="translate(0 48)"><rect width="12" height="12" fill="navy" rx="2"/><text x="18" y="10" fill="#1f2328" font-size="11px" font-weight="700">Lua <tspan fill="#59636e">14.0%</tspan></text></g><g transform="translate(0 64)"><rect width="12" height="12" fill="#178600" rx="2"/><text x="18" y="10" fill="#1f2328" font-size="11px" font-weight="700">C# <tspan fill="#59636e">13.5%</tspan></text></g><path fill="#dea584" d="M168 0a38 38 0 0 1 25.61 66.07l-10.24-11.23A22.8 22.8 0 0 0 168 15.2Z"/><path fill="#3178c6" d="M193.61 66.07a38 38 0 0 1-41.06 6.65l6.18-13.89a22.8 22.8 0 0 0 24.64-3.99Z"/><path fill="#44a51c" d="M152.55 72.72a38 38 0 0 1-22.08-28.73l15.01-2.4a22.8 22.8 0 0 0 13.25 17.24Z"/><path fill="navy" d="M130.47 43.99a38 38 0 0 1 9-31.09l11.41 10.04a22.8 22.8 0 0 0-5.4 18.65Z"/><path fill="#178600" d="M139.47 12.9A38 38 0 0 1 168 0v15.2a22.8 22.8 0 0 0-17.12 7.74Z"/></svg>