<svg xmlns="http://www.w3.org/2000/svg" width="350" height="180" viewBox="0 0 350 180"><style>text{font-family:-apple-system,BlinkMacSystemFont,Segoe UI,Helvetica,Arial,sans-serif}</style><text x="25" y="35" fill="#0366d6" font-size="16px" font-weight="600">Statistics</text><path fill="#586069" d="M32 55.219a.66.66 0 0 1 .589.366l1.647 3.338 3.683.535a.656.656 0 0 1 .364 1.12l-2.665 2.598.63 3.668a.656.656 0 0 1-.952.692L32 65.804l-3.295 1.732a.656.656 0 0 1-.952-.691l.63-3.67-2.667-2.598a.656.656 0 0 1 .364-1.12l3.684-.534 1.647-3.339a.66.66 0 0 1 .589-.366"/><text x="22" y="12" fill="#333" font-size="12px" transform="translate(25 55)">Total Stars: <tspan font-weight="700">128</tspan></text><path fill="#586069" d="M199.375 57.844a.656.656 0 1 1-1.313 0 .656.656 0 0 1 1.313 0m0 1.856a1.969 1.969 0 1 0-1.313 0v.769a1.97 1.97 0 0 0 1.969 1.969h1.313v1.861a1.97 1.97 0 1 0 1.313 0v-1.862h1.312a1.97 1.97 0 0 0 1.969-1.969V59.7a1.969 1.969 0 1 0-1.313 0v.769a.656.656 0 0 1-.656.656h-3.938a.656.656 0 0 1-.656-.656Zm3.281 6.456a.656.656 0 1 1-1.313 0 .656.656 0 0 1 1.313 0m2.625-7.656a.656.656 0 1 0 0-1.313.656.656 0 0 0 0 1.313"/><text x="22" y="12" fill="#333" font-size="12px" transform="translate(195 55)">Total Forks: <tspan font-weight="700">15</tspan></text><path fill="#586069" d="M35.439 97.438a3.502 3.502 0 0 1-6.878 0h-2.905a.656.656 0 0 1 0-1.313h2.905a3.502 3.502 0 0 1 6.878 0h2.905a.656.656 0 0 1 0 1.313ZM32 99.188a2.188 2.188 0 1 0 0-4.375 2.188 2.188 0 0 0 0 4.375"/><text x="22" y="12" fill="#333" font-size="12px" transform="translate(25 90)">Total Commits: <tspan font-weight="700">3.1k</tspan></text><path fill="#586069" d="m201.28 92.689 2.096-2.097a.219.219 0 0 1 .374.155v4.193a.219.219 0 0 1-.374.155L201.28 93a.22.22 0 0 1 0-.31m-2.999-.501a.656.656 0 1 0 0 1.313.656.656 0 0 0 0-1.313m-1.969.656a1.969 1.969 0 1 1 2.625 1.857V99.3a1.97 1.97 0 1 1-1.313 0l.001-4.6a1.97 1.97 0 0 1-1.313-1.857m8.313-.656h-.875V93.5h.875a.875.875 0 0 1 .875.875V99.3a1.97 1.97 0 1 0 1.313 0v-4.925a2.19 2.19 0 0 0-2.188-2.188m.875 8.968a.656.656 0 1 1 1.313 0 .656.656 0 0 1-1.313 0m-7.219-.656a.656.656 0 1 0 0 1.313.656.656 0 0 0 0-1.313"/><text x="22" y="12" fill="#333" font-size="12px" transform="translate(195 90)">Total PRs: <tspan font-weight="700">62</tspan></text><g fill="#586069"><path d="M33 134.5a1.5 1.5 0 1 0 0-3 1.5 1.5 0 0 0 0 3"/><path fill-rule="evenodd" d="M32 125a7 7 0 1 0 0 14 7 7 0 0 0 0-14m-5.688 7a5.688 5.688 0 1 1 11.375 0 5.688 5.688 0 0 1-11.375 0"/></g><text x="22" y="12" fill="#333" font-size="12px" transform="translate(25 125)">Total Issues: <tspan font-weight="700">28</tspan></text><path fill="#586069" d="M196.75 127.188a2.19 2.19 0 0 1 2.188-2.188h7.656a.656.656 0 0 1 .656.656v10.938a.656.656 0 0 1-.656.656h-2.188a.656.656 0 1 1 0-1.313h1.531v-1.75h-7a.875.875 0 0 0-.625 1.488.656.656 0 0 1-.938.919 2.18 2.18 0 0 1-.625-1.531Zm9.188-.876v7.876h-7a2.2 2.2 0 0 0-.64.094l-.001-7.095a.875.875 0 0 1 .875-.875Zm-6.563 9.407v2.844a.219.219 0 0 0 .35.175l1.269-.952a.22.22 0 0 1 .263 0l1.268.952a.219.219 0 0 0 .35-.175v-2.844a.22.22 0 0 0-.219-.219h-3.062a.22.22 0 0 0-.219.219"/><text x="22" y="12" fill="#333" font-size="12px" transform="translate(195 125)">Merged PRs: <tspan font-weight="700">47</tspan></text></svg>