<svg xmlns="http://www.w3.org/2000/svg" width="350" height="170" viewBox="0 0 350 170">
  <style>
    text { font-family: -apple-system, BlinkMacSystemFont, 'Segoe UI', Helvetica, Arial, sans-serif; }
  </style>
  <rect width="350" height="170" rx="4.5" fill="#ffffff"/>
  <text x="25" y="35" fill="#0366d6" font-size="16" font-weight="600">Matthew Wilding's Statistics</text>
  
            <g transform="translate(25, 55)">
                <g fill="#586069"><path d="M8 .25a.75.75 0 01.673.418l1.882 3.815 4.21.612a.75.75 0 01.416 1.279l-3.046 2.97.719 4.192a.75.75 0 01-1.088.791L8 12.347l-3.766 1.98a.75.75 0 01-1.088-.79l.72-4.194L.818 6.374a.75.75 0 01.416-1.28l4.21-.611L7.327.668A.75.75 0 018 .25z" transform="scale(0.875)"/></g>
                <text x="22" y="12" fill="#333333" font-size="12">Total Stars: <tspan font-weight="bold">128</tspan></text>
            </g>
            <g transform="translate(195, 55)">
                <g fill="#586069"><path d="M5 3.25a.75.75 0 11-1.5 0 .75.75 0 011.5 0zm0 2.122a2.25 2.25 0 10-1.5 0v.878A2.25 2.25 0 005.75 8.5h1.5v2.128a2.251 2.251 0 101.5 0V8.5h1.5a2.25 2.25 0 002.25-2.25v-.878a2.25 2.25 0 10-1.5 0v.878a.75.75 0 01-.75.75h-4.5A.75.75 0 015 6.25v-.878zm3.75 7.378a.75.75 0 11-1.5 0 .75.75 0 011.5 0zm3-8.75a.75.75 0 100-1.5.75.75 0 000 1.5z" transform="scale(0.875)"/></g>
                <text x="22" y="12" fill="#333333" font-size="12">Total Forks: <tspan font-weight="bold">15</tspan></text>
            </g>
            <g transform="translate(25, 90)">
                <g fill="#586069"><path d="M11.93 8.5a4.002 4.002 0 01-7.86 0H.75a.75.75 0 010-1.5h3.32a4.002 4.002 0 017.86 0h3.32a.75.75 0 010 1.5h-3.32zM8 10.5a2.5 2.5 0 100-5 2.5 2.5 0 000 5z" transform="scale(0.875)"/></g>
                <text x="22" y="12" fill="#333333" font-size="12">Total Commits: <tspan font-weight="bold">3.1k</tspan></text>
            </g>
            <g transform="translate(195, 90)">
                <g fill="#586069"><path d="M7.177 3.073L9.573.677A.25.25 0 0110 .854v4.792a.25.25 0 01-.427.177L7.177 3.427a.25.25 0 010-.354zM3.75 2.5a.75.75 0 100 1.5.75.75 0 000-1.5zm-2.25.75a2.25 2.25 0 113 2.122v5.256a2.251 2.251 0 11-1.5 0V5.372A2.25 2.25 0 011.5 3.25zM11 2.5h-1V4h1a1 1 0 011 1v5.628a2.251 2.251 0 101.5 0V5A2.5 2.5 0 0011 2.5zm1 10.25a.75.75 0 111.5 0 .75.75 0 01-1.5 0zM3.75 12a.75.75 0 100 1.5.75.75 0 000-1.5z" transform="scale(0.875)"/></g>
                <text x="22" y="12" fill="#333333" font-size="12">Total PRs: <tspan font-weight="bold">62</tspan></text>
            </g>
            <g transform="translate(25, 125)">
                <g fill="#586069"><path d="M8 9.5a1.5 1.5 0 100-3 1.5 1.5 0 000 3z"/><path fill-rule="evenodd" d="M8 0a8 8 0 100 16A8 8 0 008 0zM1.5 8a6.5 6.5 0 1113 0 6.5 6.5 0 01-13 0z" transform="scale(0.875)"/></g>
                <text x="22" y="12" fill="#333333" font-size="12">Total Issues: <tspan font-weight="bold">28</tspan></text>
            </g>
            <g transform="translate(195, 125)">
                <g fill="#586069"><path d="M2 2.5A2.5 2.5 0 014.5 0h8.75a.75.75 0 01.75.75v12.5a.75.75 0 01-.75.75h-2.5a.75.75 0 110-1.5h1.75v-2h-8a1 1 0 00-.714 1.7.75.75 0 01-1.072 1.05A2.495 2.495 0 012 11.5v-9zm10.5-1v9h-8a2.5 2.5 0 00-.732.107V2.5a1 1 0 011-1h7.732zM5 12.25v3.25a.25.25 0 00.4.2l1.45-1.087a.25.25 0 01.3 0L8.6 15.7a.25.25 0 00.4-.2v-3.25a.25.25 0 00-.25-.25h-3.5a.25.25 0 00-.25.25z" transform="scale(0.875)"/></g>
                <text x="22" y="12" fill="#333333" font-size="12">Merged PRs (external): <tspan font-weight="bold">47</tspan></text>
            </g>
</svg>