<svg xmlns="http://www.w3.org/2000/svg" width="293" height="56" viewBox="0 0 293 56"><style>text{font-family:-apple-system,BlinkMacSystemFont,Segoe UI,Helvetica,Arial,sans-serif}</style><path fill="#59636e" d="M7 .219a.66.66 0 0 1 .589.366l1.647 3.338 3.683.535a.656.656 0 0 1 .364 1.12l-2.665 2.598.63 3.668a.656.656 0 0 1-.952.692L7 10.804l-3.295 1.732a.656.656 0 0 1-.952-.691l.63-3.67L.716 5.577a.656.656 0 0 1 .364-1.12l3.683-.534L6.411.584A.66.66 0 0 1 7 .219"/><text x="18" y="12" fill="#1f2328" font-size="12px" font-weight="700">Total Stars:</text><text x="133" y="12" fill="#1f2328" font-size="12px" font-weight="700" text-anchor="end">137</text><path fill="#59636e" d="M157.375 2.844a.656.656 0 1 1-1.313 0 .656.656 0 0 1 1.313 0m0 1.857a1.969 1.969 0 1 0-1.313 0v.768a1.97 1.97 0 0 0 1.969 1.969h1.313V9.3a1.97 1.97 0 1 0 1.313 0V7.437h1.312a1.97 1.97 0 0 0 1.969-1.969V4.7a1.969 1.969 0 1 0-1.313 0v.769a.656.656 0 0 1-.656.656h-3.938a.656.656 0 0 1-.656-.656Zm3.281 6.455a.656.656 0 1 1-1.313 0 .656.656 0 0 1 1.313 0m2.625-7.656a.656.656 0 1 0 0-1.313.656.656 0 0 0 0 1.313"/><text x="18" y="12" fill="#1f2328" font-size="12px" font-weight="700" transform="translate(153)">Total Forks:</text><text x="140" y="12" fill="#1f2328" font-size="12px" font-weight="700" text-anchor="end" transform="translate(153)">18</text><path fill="#59636e" d="M10.439 27.438a3.502 3.502 0 0 1-6.878 0H.656a.656.656 0 0 1 0-1.313h2.905a3.502 3.502 0 0 1 6.878 0h2.905a.656.656 0 0 1 0 1.313ZM7 29.188a2.188 2.188 0 1 0 0-4.375 2.188 2.188 0 0 0 0 4.375"/><text x="18" y="12" fill="#1f2328" font-size="12px" font-weight="700" transform="translate(0 20)">Total Commits:</text><text x="133" y="12" fill="#1f2328" font-size="12px" font-weight="700" text-anchor="end" transform="translate(0 20)">2.7k</text><path fill="#59636e" d="m159.28 22.689 2.096-2.097a.219.219 0 0 1 .374.155v4.193a.219.219 0 0 1-.374.155L159.28 23a.22.22 0 0 1 0-.31m-2.999-.502a.656.656 0 1 0 0 1.313.656.656 0 0 0 0-1.313m-1.969.657a1.969 1.969 0 1 1 2.625 1.857v4.598a1.97 1.97 0 1 1-1.313 0l.001-4.599a1.97 1.97 0 0 1-1.313-1.857m8.313-.657h-.875V23.5h.875a.875.875 0 0 1 .875.875V29.3a1.97 1.97 0 1 0 1.313 0v-4.925a2.19 2.19 0 0 0-2.188-2.188m.875 8.97a.656.656 0 1 1 1.313 0 .656.656 0 0 1-1.313 0m-7.219-.657a.656.656 0 1 0 0 1.313.656.656 0 0 0 0-1.313"/><text x="18" y="12" fill="#1f2328" font-size="12px" font-weight="700" transform="translate(153 20)">Total PRs:</text><text x="140" y="12" fill="#1f2328" font-size="12px" font-weight="700" text-anchor="end" transform="translate(153 20)">70</text><g fill="#59636e"><path d="M8 49.5a1.5 1.5 0 1 0 0-3 1.5 1.5 0 0 0 0 3"/><path fill-rule="evenodd" d="M7 40a7 7 0 1 0 0 14 7 7 0 0 0 0-14m-5.688 7a5.688 5.688 0 1 1 11.375 0 5.688 5.688 0 0 1-11.375 0"/></g><text x="18" y="12" fill="#1f2328" font-size="12px" font-weight="700" transform="translate(0 40)">Total Issues:</text><text x="133" y="12" fill="#1f2328" font-size="12px" font-weight="700" text-anchor="end" transform="translate(0 40)">28</text><path fill="#59636e" d="M154.75 42.188A2.19 2.19 0 0 1 156.938 40h7.656a.656.656 0 0 1 .656.656v10.938a.656.656 0 0 1-.656.656h-2.188a.656.656 0 1 1 0-1.313h1.531v-1.75h-7a.875.875 0 0 0-.625 1.488.656.656 0 0 1-.938.919 2.18 2.18 0 0 1-.625-1.531Zm9.188-.876v7.876h-7a2.2 2.2 0 0 0-.64.094l-.001-7.094a.875.875 0 0 1 .875-.875Zm-6.563 9.407v2.843a.219.219 0 0 0 .35.175l1.269-.95a.22.22 0 0 1 .263 0l1.268.95a.219.219 0 0 0 .35-.175V50.72a.22.22 0 0 0-.219-.219h-3.062a.22.22 0 0 0-.219.219"/><text x="18" y="12" fill="#1f2328" font-size="12px" font-weight="700" transform="translate(153 40)">Merged PRs (ext):</text><text x="140" y="12" fill="#1f2328" font-size="12px" font-weight="700" text-anchor="end" transform="translate(153 40)">55</text></svg>